<?xml version="1.0" encoding="UTF-8"?>
<!DOCTYPE svg PUBLIC "-//W3C//DTD SVG 1.1//EN" "http://www.w3.org/Graphics/SVG/1.1/DTD/svg11.dtd">
<svg xmlns="http://www.w3.org/2000/svg" version="1.1" width="186px" height="200px" style="shape-rendering:geometricPrecision; text-rendering:geometricPrecision; image-rendering:optimizeQuality; fill-rule:evenodd; clip-rule:evenodd" xmlns:xlink="http://www.w3.org/1999/xlink">
<g><path style="opacity:0.986" fill="#ffa726" d="M 89.5,-0.5 C 90.5,-0.5 91.5,-0.5 92.5,-0.5C 92.5,17.8333 92.5,36.1667 92.5,54.5C 87.8599,52.1799 83.1932,49.8466 78.5,47.5C 65.6658,55.0827 52.9991,62.916 40.5,71C 47.5919,74.5459 54.5919,78.0459 61.5,81.5C 54.6745,86.137 47.6745,90.637 40.5,95C 48.0208,98.5926 55.3542,102.426 62.5,106.5C 55.0554,110.727 47.7221,115.227 40.5,120C 58.0477,128.275 75.3811,136.775 92.5,145.5C 92.5,163.5 92.5,181.5 92.5,199.5C 91.8333,199.5 91.1667,199.5 90.5,199.5C 65.0571,184.941 39.3904,170.608 13.5,156.5C 8.89264,118.353 4.22597,80.3525 -0.5,42.5C -0.5,38.8333 -0.5,35.1667 -0.5,31.5C 29.7903,21.405 59.7903,10.7383 89.5,-0.5 Z"/></g>
<g><path style="opacity:1" fill="#fb8c01" d="M 92.5,-0.5 C 93.5,-0.5 94.5,-0.5 95.5,-0.5C 125.21,10.7383 155.21,21.405 185.5,31.5C 185.5,35.1667 185.5,38.8333 185.5,42.5C 180.645,79.84 175.978,117.34 171.5,155C 170.728,156.221 169.728,157.221 168.5,158C 143.609,171.608 118.943,185.441 94.5,199.5C 93.8333,199.5 93.1667,199.5 92.5,199.5C 92.5,181.5 92.5,163.5 92.5,145.5C 97.3773,146.937 102.044,148.937 106.5,151.5C 119.299,143.865 131.966,136.031 144.5,128C 137.712,125.106 131.045,121.94 124.5,118.5C 123.702,118.043 123.369,117.376 123.5,116.5C 130.472,112.345 137.472,108.178 144.5,104C 136.979,100.407 129.646,96.574 122.5,92.5C 129.748,88.5897 136.748,84.2564 143.5,79.5C 126.627,70.897 109.627,62.5637 92.5,54.5C 92.5,36.1667 92.5,17.8333 92.5,-0.5 Z"/></g>
<g><path style="opacity:1" fill="#fffefd" d="M 92.5,54.5 C 109.627,62.5637 126.627,70.897 143.5,79.5C 136.748,84.2564 129.748,88.5897 122.5,92.5C 117.402,96.418 111.902,99.7513 106,102.5C 91.0993,95.5914 76.266,88.5914 61.5,81.5C 54.5919,78.0459 47.5919,74.5459 40.5,71C 52.9991,62.916 65.6658,55.0827 78.5,47.5C 83.1932,49.8466 87.8599,52.1799 92.5,54.5 Z"/></g>
<g><path style="opacity:1" fill="#fff2de" d="M 61.5,81.5 C 76.266,88.5914 91.0993,95.5914 106,102.5C 111.902,99.7513 117.402,96.418 122.5,92.5C 129.646,96.574 136.979,100.407 144.5,104C 137.472,108.178 130.472,112.345 123.5,116.5C 117.877,120.227 112.044,123.561 106,126.5C 91.5505,119.691 77.0505,113.025 62.5,106.5C 55.3542,102.426 48.0208,98.5926 40.5,95C 47.6745,90.637 54.6745,86.137 61.5,81.5 Z"/></g>
<g><path style="opacity:1" fill="#ffdfb0" d="M 62.5,106.5 C 77.0505,113.025 91.5505,119.691 106,126.5C 112.044,123.561 117.877,120.227 123.5,116.5C 123.369,117.376 123.702,118.043 124.5,118.5C 131.045,121.94 137.712,125.106 144.5,128C 131.966,136.031 119.299,143.865 106.5,151.5C 102.044,148.937 97.3773,146.937 92.5,145.5C 75.3811,136.775 58.0477,128.275 40.5,120C 47.7221,115.227 55.0554,110.727 62.5,106.5 Z"/></g>
</svg>
