<?xml version="1.0" encoding="UTF-8"?>
<svg version="1.1" xmlns="http://www.w3.org/2000/svg" width="800" height="800">
<path d="M0 0 C3.73869925 0.01712241 7.47675917 0.00688356 11.21543694 -0.01030922 C28.94939777 -0.07961603 46.29935132 0.61656021 63.85644531 3.39111328 C64.67046814 3.5180658 65.48449097 3.64501831 66.32318115 3.77581787 C71.39768105 4.58475387 76.44185903 5.51386571 81.48144531 6.51611328 C82.23038055 6.66317719 82.9793158 6.81024109 83.75094604 6.96176147 C156.17404222 21.30218907 223.62153354 56.24009111 277.26953125 106.90576172 C278.93218173 108.46200257 280.61388803 109.99509253 282.30175781 111.52392578 C287.46427283 116.20736174 292.52444265 120.86235701 297.00097656 126.22314453 C298.95184356 128.5025786 300.99410382 130.68275947 303.05297852 132.86450195 C309.79743807 140.03506127 315.92526667 147.540284 321.85644531 155.39111328 C322.40059082 156.10541504 322.94473633 156.8197168 323.50537109 157.55566406 C332.28555361 169.11140526 340.37976965 180.95243965 347.85644531 193.39111328 C348.34322754 194.19709961 348.83000977 195.00308594 349.33154297 195.83349609 C378.57693359 244.61114596 395.41577953 298.2239288 402.85644531 354.39111328 C403.03602783 355.68662109 403.21561035 356.98212891 403.40063477 358.31689453 C404.15643129 365.31826436 404.06287696 372.36875804 404.09472656 379.40283203 C404.10083985 380.55889922 404.10083985 380.55889922 404.10707664 381.7383213 C404.1278715 385.83832137 404.1421871 389.93828889 404.15161133 394.03833008 C404.16036374 397.361114 404.18098686 400.68346494 404.21313477 404.00610352 C405.09919594 497.72016487 370.62123883 589.53783503 297.85644531 673.39111328 C296.95629973 674.39595807 296.05658125 675.40118557 295.15722656 676.40673828 C275.91673627 697.76874149 253.40410855 716.24004118 229.98144531 732.82861328 C229.32160645 733.30758057 228.66176758 733.78654785 227.98193359 734.2800293 C223.42525479 737.43873095 223.42525479 737.43873095 220.8188324 737.22053528 C218.36926472 736.18520166 217.63963969 735.15906079 216.20043945 732.93676758 C215.71263 732.1962616 215.22482056 731.45575562 214.722229 730.69281006 C214.20062195 729.87524231 213.67901489 729.05767456 213.14160156 728.21533203 C212.58237 727.35965637 212.02313843 726.50398071 211.44696045 725.62237549 C209.59351202 722.78131063 207.75648954 719.92998519 205.91894531 717.07861328 C204.62485314 715.0896083 203.32950588 713.1014194 202.03295898 711.11401367 C199.32792081 706.96541698 196.62839768 702.81330922 193.93261719 698.65869141 C188.16952404 689.78579337 182.34254881 680.95511463 176.51425171 672.12496948 C174.66587875 669.32396624 172.8191718 666.52187125 170.97290039 663.71948242 C163.85475809 652.9174857 156.70255671 642.1394775 149.51318359 631.38476562 C143.31467203 622.10197742 137.1751949 612.78091833 131.04394531 603.45361328 C130.5243222 602.66314606 130.0046991 601.87267883 129.46932983 601.05825806 C127.31067643 597.77425685 125.1521617 594.49016454 122.99378967 591.20597839 C116.30850178 581.03435694 109.61557032 570.86777385 102.91894531 560.70361328 C102.29966156 559.76361481 101.68037781 558.82361633 101.04232788 557.85513306 C93.14264698 545.86667194 85.21162964 533.90032902 77.23291016 521.96435547 C71.7951824 513.82099585 66.41104386 505.64359303 61.04394531 497.45361328 C52.51755736 484.44353 43.97676966 471.44304613 35.41894531 458.45361328 C34.49304092 457.04814743 34.49304092 457.04814743 33.5484314 455.61428833 C24.52859976 441.9262529 15.47208445 428.26333913 6.34692383 414.64526367 C1.16335863 406.9018755 -3.93913027 399.10892079 -9.00926208 391.290802 C-14.91488022 382.18957131 -20.88146776 373.12886962 -26.85522461 364.07226562 C-28.70933883 361.261134 -30.5622571 358.44921686 -32.41503906 355.63720703 C-37.97041203 347.20917036 -43.53657738 338.78882774 -49.14355469 330.39501953 C-53.52254755 323.83917331 -57.87050985 317.26349752 -62.20214844 310.67626953 C-63.10756126 309.29973206 -63.10756126 309.29973206 -64.03126526 307.89538574 C-66.49924355 304.14248923 -68.96675224 300.38928804 -71.43188477 296.63452148 C-75.65175725 290.20846417 -79.88863519 283.79401791 -84.14355469 277.39111328 C-84.74468079 276.48399597 -85.34580688 275.57687866 -85.96514893 274.64227295 C-87.71479032 272.00939315 -89.4760062 269.38467063 -91.24121094 266.76220703 C-91.76315536 265.97459488 -92.28509979 265.18698273 -92.82286072 264.37550354 C-95.8845005 259.86014135 -98.77188653 255.68691855 -104.06201172 253.65380859 C-109.34545321 252.98702663 -114.70218872 253.16261527 -120.01855469 253.14111328 C-121.28570312 253.12048828 -122.55285156 253.09986328 -123.85839844 253.07861328 C-125.08429688 253.07345703 -126.31019531 253.06830078 -127.57324219 253.06298828 C-129.24749268 253.04896973 -129.24749268 253.04896973 -130.95556641 253.03466797 C-135.52420109 253.54548177 -138.61235704 255.27347177 -142.28689575 257.95556641 C-144.96912814 261.47409239 -144.71508001 264.83904229 -144.68945312 269.08935547 C-144.69977664 269.98523974 -144.71010015 270.88112402 -144.7207365 271.8041563 C-144.75064801 274.84894043 -144.75164577 277.89306636 -144.75292969 280.93798828 C-144.7682698 283.16505568 -144.78525364 285.39211226 -144.8037262 287.61915588 C-144.84935865 293.81464156 -144.86871333 300.00997254 -144.8827858 306.20560074 C-144.89536978 310.8044439 -144.91763159 315.40320055 -144.94126731 320.00199825 C-145.01800991 334.93733099 -145.06537976 349.87261014 -145.09767258 364.80810082 C-145.12672256 378.12336921 -145.17190751 391.4385202 -145.22505546 404.75371337 C-145.30782721 425.49992074 -145.37261178 446.24609546 -145.41355705 466.99242973 C-145.41790621 469.18501665 -145.42226577 471.37760355 -145.42663574 473.57019043 C-145.42878275 474.65371328 -145.43092976 475.73723612 -145.43314183 476.85359299 C-145.4492231 484.52991134 -145.47463604 492.2061666 -145.50354004 499.88244629 C-145.53883327 509.33982672 -145.55939389 518.79710861 -145.56178278 528.2545566 C-145.56338026 533.15146235 -145.5715654 538.04813297 -145.59683418 542.94497871 C-145.61997229 547.47354418 -145.62446572 552.00173505 -145.61423159 556.53034449 C-145.61376711 558.178916 -145.62011278 559.82750597 -145.63384771 561.47602034 C-145.65151625 563.72053935 -145.64448751 565.96368674 -145.63130188 568.20820618 C-145.63488441 570.08408905 -145.63488441 570.08408905 -145.63853931 571.99786854 C-144.91005859 576.99178805 -142.34308093 579.96118299 -139.17089844 583.74267578 C-134.23912882 586.42810389 -129.2194827 585.88631424 -123.70605469 585.76611328 C-122.02672852 585.76417969 -122.02672852 585.76417969 -120.31347656 585.76220703 C-110.57585839 585.68225071 -110.57585839 585.68225071 -102.33105469 580.95361328 C-99.58615679 577.73816146 -99.02197551 575.44417263 -98.98927212 571.3518877 C-98.98031428 570.5273166 -98.97135644 569.70274549 -98.96212715 568.85318738 C-98.95725809 567.94755306 -98.95238904 567.04191873 -98.94737244 566.10884094 C-98.93835091 565.14664286 -98.92932938 564.18444478 -98.92003447 563.19308919 C-98.89086424 559.95483835 -98.86867999 556.71657677 -98.84643555 553.47827148 C-98.82700231 551.16258393 -98.80714046 548.84689995 -98.78688049 546.53121948 C-98.7329901 540.232041 -98.68512182 533.93282923 -98.63830256 527.63359475 C-98.58839484 521.05519563 -98.53299331 514.47684289 -98.47816467 507.89848328 C-98.38668593 496.85300137 -98.29893675 485.80749404 -98.21362305 474.76196289 C-98.12573503 463.38433965 -98.03580297 452.00673559 -97.94311523 440.62915039 C-97.93740397 439.9279946 -97.9316927 439.22683881 -97.92580836 438.50443587 C-97.89714436 434.98699076 -97.86844011 431.46954597 -97.83971584 427.95210135 C-97.60142053 398.76515415 -97.3702583 369.57815277 -97.14355469 340.39111328 C-94.09553567 343.39812443 -91.35879458 346.25489466 -88.97167969 349.81298828 C-88.39901367 350.66006348 -87.82634766 351.50713867 -87.23632812 352.37988281 C-86.62821289 353.29108887 -86.02009766 354.20229492 -85.39355469 355.14111328 C-84.04989241 357.13335995 -82.706139 359.12554515 -81.36230469 361.11767578 C-80.32009766 362.66890137 -80.32009766 362.66890137 -79.25683594 364.25146484 C-75.82269228 369.35348511 -72.35595039 374.43324527 -68.89355469 379.51611328 C-40.77780263 420.8616747 -12.76063795 462.27426053 15.23144531 503.70361328 C15.74692932 504.46652679 16.26241333 505.22944031 16.79351807 506.01547241 C23.23437293 515.54801305 29.67349073 525.08172402 36.11076355 534.61668396 C40.31174089 540.83854635 44.51719127 547.0573746 48.72419739 553.27516174 C51.55790164 557.46495453 54.38114216 561.66148763 57.19628906 565.86376953 C64.51174719 576.74797109 72.20096915 587.25067512 80.21191406 597.63330078 C83.21938533 601.53784543 86.13994762 605.48956975 88.98144531 609.51611328 C98.14733686 622.49951961 107.69895516 635.2038636 117.24755859 647.90698242 C125.00465646 658.23538855 132.64856734 668.64706941 140.28222656 679.06689453 C147.147222 688.42533108 154.11927512 697.69170316 161.17626953 706.90625 C165.62619125 712.73236924 169.92393764 718.63654403 174.13378906 724.63720703 C176.34180579 727.73154643 178.65401893 730.73639895 180.98535156 733.73876953 C181.71560547 734.68171875 182.44585938 735.62466797 183.19824219 736.59619141 C184.65405362 738.46941228 186.11735538 740.33684113 187.58886719 742.19775391 C188.58950195 743.48649414 188.58950195 743.48649414 189.61035156 744.80126953 C190.21177979 745.56576416 190.81320801 746.33025879 191.43286133 747.11791992 C192.97234237 749.57617887 193.47306668 751.53546226 193.85644531 754.39111328 C176.25300158 763.6242921 158.53680138 771.54537457 139.85644531 778.39111328 C138.49156982 778.89698975 138.49156982 778.89698975 137.09912109 779.41308594 C102.03178114 792.26551771 62.91991346 800.42472652 25.58300781 800.66455078 C24.40320406 800.6725363 24.40320406 800.6725363 23.19956589 800.68068314 C19.00951877 800.70734411 14.81950023 800.72671299 10.62939453 800.74121094 C7.2436899 800.75433879 3.85861872 800.78179417 0.47314453 800.82324219 C-90.36833516 801.90848659 -180.68679352 769.19300957 -250.40966797 710.83251953 C-252.02464157 709.48996755 -253.65457626 708.16999103 -255.29589844 706.85986328 C-260.23628708 702.90213081 -264.84112621 698.83210882 -269.24902344 694.28955078 C-271.14361397 692.39105388 -273.10867877 690.63755048 -275.14355469 688.89111328 C-281.32649909 683.55514756 -286.92934347 677.76061277 -292.24511719 671.56689453 C-294.41100474 669.08459131 -296.65232426 666.68056183 -298.89355469 664.26611328 C-357.16601445 600.19277517 -395.98672366 508.23339084 -396.38183594 421.28173828 C-396.38794923 420.1270467 -396.38794923 420.1270467 -396.39418602 418.94902802 C-396.41496114 414.85550723 -396.42928629 410.76201888 -396.4387207 406.66845703 C-396.4474786 403.35250899 -396.46811843 400.03699404 -396.50024414 396.72119141 C-397.02979998 340.7842593 -385.29901255 286.40577245 -362.14355469 235.39111328 C-361.73266602 234.47894043 -361.32177734 233.56676758 -360.8984375 232.62695312 C-343.12876144 193.45628829 -318.70763997 158.33541335 -289.515625 126.88085938 C-288.09552212 125.33896119 -286.69214734 123.78316743 -285.29199219 122.22314453 C-280.86331123 117.30137488 -276.43287917 112.54091345 -271.34667969 108.28173828 C-269.05615704 106.31611247 -266.86171809 104.26229928 -264.66650391 102.19140625 C-258.02789627 95.94619758 -251.09975579 90.23588243 -243.85791016 84.70703125 C-242.1931776 83.42920321 -240.543533 82.13426275 -238.89746094 80.83251953 C-230.93580461 74.56327829 -222.68161731 68.84667807 -214.14355469 63.39111328 C-213.47259766 62.96217773 -212.80164063 62.53324219 -212.11035156 62.09130859 C-169.20340388 34.86578064 -122.36797799 16.00770207 -72.51855469 6.07861328 C-71.37862061 5.84819336 -70.23868652 5.61777344 -69.06420898 5.38037109 C-46.12586607 1.04932194 -23.27326393 -0.10742686 0 0 Z M104.85644531 245.39111328 C101.19922574 250.78816692 100.2680942 254.57203241 100.30813599 261.02171326 C100.29766263 261.86578407 100.28718927 262.70985488 100.27639854 263.5795036 C100.24650421 266.39507492 100.2449907 269.20991592 100.24365234 272.02563477 C100.22840152 274.04995441 100.2115452 276.07426249 100.19320679 278.09855652 C100.1493637 283.59079917 100.13172424 289.08281913 100.1215539 294.57521701 C100.11425782 298.01220303 100.10177277 301.44913115 100.08755112 304.88609505 C100.03856773 316.8932462 100.01246189 328.90022477 100.00537109 340.9074707 C99.99811213 352.07141428 99.93840663 363.23425426 99.85456192 374.39786094 C99.78497502 384.00245689 99.75427103 393.60668893 99.75287902 403.21153504 C99.75129876 408.9390309 99.73407235 414.66540351 99.6768837 420.39263725 C99.62421114 425.78837275 99.62027877 431.18206674 99.65219498 436.5779438 C99.65580038 438.54665741 99.64265645 440.51549254 99.61055756 442.48394775 C99.40939351 455.63331966 101.55603762 464.10142099 109.55676532 474.65138352 C111.68430458 477.49927175 113.59714495 480.47999929 115.54394531 483.45361328 C116.37240071 484.68864064 117.20162476 485.92315344 118.03222656 487.15673828 C121.48168928 492.30653463 124.8522616 497.50755868 128.23144531 502.70361328 C133.04396521 510.09237243 137.86352667 517.47619815 142.73144531 524.82861328 C143.23724121 525.59794189 143.74303711 526.36727051 144.26416016 527.15991211 C145.43486531 528.92169856 146.64152207 530.65952339 147.85644531 532.39111328 C148.18644531 532.39111328 148.51644531 532.39111328 148.85644531 532.39111328 C149.60377327 499.30316499 150.01076717 466.23347359 149.99077082 433.13728976 C149.98816051 427.42226038 149.99060692 421.70723224 149.99215698 415.99220276 C149.99394942 406.44914451 149.9916459 396.90609415 149.98681641 387.36303711 C149.98132742 376.39125273 149.98318148 365.4194868 149.98864281 354.44770283 C149.99319693 344.90843056 149.9938148 335.36916379 149.99120414 325.82989079 C149.98966057 320.18223426 149.98939508 314.53458641 149.99274063 308.88693047 C149.99565503 303.60448088 149.99357901 298.32205505 149.98784637 293.039608 C149.98653998 291.12053911 149.98687608 289.20146817 149.98910904 287.28240013 C149.99452783 282.14777358 149.9695127 277.01537995 149.8900857 271.88132739 C149.86707375 270.1778785 149.8537938 268.47427786 149.84886694 266.77068067 C149.8364319 264.19065573 149.78446688 261.61408408 149.72335815 259.0348053 C149.72651696 258.26677879 149.72967577 257.49875228 149.7329303 256.70745224 C149.54856646 251.38453425 148.01260305 248.63221334 144.38458741 244.75681394 C139.11923727 240.05117027 132.1648293 241.02377191 125.54394531 241.01611328 C124.44115234 240.99162109 123.33835937 240.96712891 122.20214844 240.94189453 C115.93481413 240.91944438 109.71521628 240.96004856 104.85644531 245.39111328 Z " fill="#E8E8E8" transform="translate(396.1435546875,-0.39111328125)"/>
</svg>
