<svg id="svg" version="1.1" xmlns="http://www.w3.org/2000/svg" xmlns:xlink="http://www.w3.org/1999/xlink" width="400" height="399.609375" viewBox="0, 0, 400,399.609375"><g id="svgg"><path id="path0" d="M186.914 0.190 C 183.902 0.434,177.968 0.978,176.074 1.185 C 168.245 2.038,155.756 4.364,149.121 6.204 C 148.154 6.472,147.012 6.753,146.582 6.828 C 146.152 6.903,145.010 7.206,144.043 7.501 C 143.076 7.796,141.406 8.299,140.332 8.618 C 139.258 8.937,137.852 9.382,137.207 9.606 C 136.563 9.830,135.640 10.126,135.156 10.265 C 134.673 10.404,133.267 10.888,132.031 11.340 C 130.796 11.791,129.302 12.330,128.711 12.536 C 128.120 12.743,127.285 13.071,126.855 13.266 C 126.426 13.461,125.854 13.683,125.586 13.760 C 125.317 13.836,124.818 14.024,124.477 14.178 C 123.449 14.642,121.044 15.646,120.281 15.931 C 119.388 16.263,113.937 18.806,111.914 19.833 C 111.646 19.969,111.118 20.235,110.742 20.425 C 110.366 20.614,109.883 20.859,109.668 20.970 C 109.453 21.080,108.602 21.503,107.777 21.911 C 106.951 22.318,106.221 22.740,106.154 22.849 C 106.087 22.958,105.896 23.047,105.730 23.047 C 105.564 23.047,105.037 23.311,104.560 23.633 C 104.082 23.955,103.582 24.219,103.447 24.219 C 103.313 24.219,103.094 24.329,102.961 24.463 C 102.827 24.597,102.216 24.988,101.603 25.331 C 97.882 27.413,95.786 28.663,93.652 30.072 C 93.008 30.498,92.349 30.910,92.188 30.988 C 92.026 31.066,91.248 31.575,90.459 32.118 C 89.669 32.661,88.790 33.229,88.506 33.380 C 88.221 33.531,87.960 33.726,87.925 33.814 C 87.890 33.902,87.341 34.290,86.704 34.677 C 86.068 35.063,85.547 35.461,85.547 35.561 C 85.547 35.661,85.420 35.742,85.266 35.742 C 85.111 35.742,84.696 36.006,84.344 36.328 C 83.991 36.650,83.597 36.914,83.469 36.914 C 83.341 36.914,83.206 36.988,83.171 37.078 C 83.135 37.169,82.622 37.578,82.031 37.987 C 81.440 38.397,80.887 38.850,80.801 38.995 C 80.715 39.139,80.534 39.258,80.398 39.258 C 80.262 39.258,79.899 39.521,79.590 39.844 C 79.281 40.166,78.958 40.430,78.871 40.430 C 78.785 40.430,78.515 40.596,78.273 40.800 C 78.030 41.004,77.041 41.797,76.074 42.564 C 75.107 43.330,73.965 44.257,73.535 44.623 C 73.105 44.990,71.985 45.921,71.045 46.693 C 70.105 47.465,69.336 48.173,69.336 48.267 C 69.336 48.361,69.207 48.438,69.049 48.438 C 68.891 48.437,68.567 48.701,68.328 49.023 C 68.090 49.346,67.808 49.609,67.702 49.609 C 67.595 49.609,67.235 49.895,66.901 50.244 C 66.567 50.593,65.243 51.846,63.960 53.027 C 61.296 55.480,54.652 62.135,53.095 63.911 C 52.521 64.566,51.743 65.419,51.367 65.807 C 50.991 66.196,50.200 67.071,49.609 67.754 C 49.019 68.436,48.446 69.093,48.337 69.214 C 48.228 69.335,47.368 70.356,46.425 71.484 C 45.483 72.612,44.518 73.765,44.280 74.045 C 44.042 74.325,43.654 74.809,43.417 75.119 C 43.181 75.430,42.412 76.411,41.708 77.299 C 41.005 78.187,40.430 78.968,40.430 79.033 C 40.430 79.098,40.144 79.476,39.795 79.872 C 39.446 80.268,38.677 81.277,38.086 82.114 C 37.495 82.951,36.828 83.868,36.604 84.152 C 36.380 84.436,35.788 85.283,35.287 86.035 C 34.786 86.787,34.296 87.501,34.197 87.621 C 33.718 88.203,32.227 90.475,32.227 90.623 C 32.227 90.716,32.103 90.916,31.951 91.068 C 31.800 91.219,31.385 91.819,31.030 92.400 C 30.675 92.981,30.272 93.573,30.134 93.715 C 29.996 93.857,29.883 94.061,29.883 94.168 C 29.883 94.275,29.663 94.650,29.395 95.002 C 29.126 95.354,28.904 95.722,28.901 95.819 C 28.898 95.916,28.634 96.341,28.315 96.763 C 27.996 97.185,27.734 97.605,27.734 97.695 C 27.734 97.786,27.505 98.206,27.225 98.630 C 26.945 99.053,26.571 99.663,26.395 99.984 C 26.219 100.306,25.734 101.167,25.319 101.896 C 24.904 102.626,24.348 103.618,24.085 104.102 C 23.822 104.585,23.326 105.490,22.985 106.112 C 21.183 109.393,16.961 118.109,16.011 120.508 C 15.820 120.991,15.338 122.134,14.941 123.047 C 14.543 123.960,14.015 125.234,13.767 125.879 C 12.692 128.672,11.208 132.670,10.541 134.570 C 10.410 134.946,10.100 135.825,9.854 136.523 C 9.608 137.222,9.351 138.013,9.284 138.281 C 9.217 138.550,8.905 139.604,8.591 140.625 C 7.187 145.192,6.834 146.406,6.831 146.680 C 6.830 146.841,6.567 147.803,6.247 148.818 C 5.926 149.834,5.665 150.844,5.667 151.065 C 5.669 151.285,5.412 152.476,5.096 153.711 C 4.780 154.946,4.422 156.484,4.301 157.129 C 4.180 157.773,3.915 159.136,3.712 160.156 C 3.073 163.368,2.309 168.005,2.150 169.629 C 2.066 170.488,1.774 172.993,1.500 175.195 C 0.120 186.317,-0.049 189.461,0.059 202.148 C 0.130 210.424,0.231 213.867,0.463 215.918 C 0.634 217.422,0.860 219.714,0.966 221.012 C 1.071 222.310,1.372 224.727,1.633 226.383 C 1.894 228.039,2.163 229.922,2.231 230.566 C 2.298 231.211,2.531 232.573,2.749 233.594 C 2.967 234.614,3.222 236.015,3.316 236.707 C 3.410 237.399,3.707 238.937,3.977 240.125 C 4.246 241.313,4.603 242.900,4.769 243.652 C 5.943 248.963,8.359 257.634,9.694 261.330 C 9.947 262.030,10.277 263.040,10.428 263.576 C 10.578 264.112,11.072 265.562,11.524 266.797 C 11.976 268.032,12.514 269.526,12.720 270.117 C 12.925 270.708,13.268 271.564,13.480 272.019 C 13.693 272.475,13.867 272.937,13.867 273.046 C 13.867 273.155,14.087 273.700,14.355 274.256 C 14.624 274.813,14.844 275.351,14.844 275.451 C 14.844 275.552,15.157 276.349,15.541 277.222 C 15.924 278.094,16.504 279.424,16.830 280.176 C 17.156 280.928,17.624 281.982,17.871 282.520 C 18.572 284.046,23.386 293.714,24.096 295.020 C 26.764 299.927,26.571 299.578,27.066 300.391 C 27.295 300.767,27.737 301.502,28.048 302.025 C 28.359 302.547,28.701 303.119,28.809 303.294 C 28.916 303.470,29.306 304.141,29.675 304.785 C 30.043 305.430,30.404 306.001,30.475 306.055 C 30.547 306.108,30.720 306.369,30.860 306.635 C 31.000 306.900,31.869 308.263,32.792 309.662 C 33.714 311.062,34.558 312.350,34.666 312.525 C 35.330 313.595,36.591 315.342,36.739 315.397 C 36.835 315.433,36.914 315.578,36.914 315.719 C 36.914 315.860,37.128 316.226,37.389 316.533 C 38.198 317.482,39.258 318.941,39.258 319.106 C 39.258 319.192,39.521 319.515,39.844 319.824 C 40.166 320.133,40.430 320.455,40.430 320.540 C 40.430 320.625,41.005 321.422,41.708 322.310 C 42.412 323.199,43.181 324.177,43.417 324.485 C 43.654 324.792,44.331 325.639,44.922 326.366 C 47.926 330.065,49.061 331.429,49.835 332.267 C 50.302 332.773,51.211 333.773,51.855 334.490 C 56.331 339.463,62.417 345.539,66.218 348.828 C 66.901 349.419,67.734 350.188,68.070 350.537 C 68.405 350.886,68.767 351.172,68.874 351.172 C 68.980 351.172,69.262 351.436,69.500 351.758 C 69.739 352.080,70.063 352.344,70.221 352.344 C 70.379 352.344,70.508 352.424,70.508 352.522 C 70.508 352.620,71.101 353.166,71.826 353.736 C 72.551 354.305,73.672 355.218,74.316 355.764 C 74.961 356.310,75.673 356.885,75.898 357.041 C 76.734 357.620,79.513 359.759,79.792 360.037 C 79.951 360.196,80.256 360.382,80.470 360.450 C 80.684 360.518,80.859 360.643,80.859 360.728 C 80.859 360.872,82.390 361.987,83.616 362.735 C 83.916 362.918,84.342 363.248,84.561 363.468 C 84.781 363.687,85.085 363.867,85.238 363.867 C 85.390 363.867,85.544 363.942,85.579 364.034 C 85.615 364.125,86.743 364.926,88.086 365.813 C 89.429 366.701,90.893 367.681,91.341 367.991 C 91.788 368.301,92.213 368.555,92.285 368.555 C 92.357 368.555,92.783 368.800,93.230 369.099 C 94.115 369.691,94.340 369.830,95.801 370.689 C 96.338 371.005,96.865 371.339,96.973 371.431 C 97.174 371.604,98.269 372.242,101.691 374.182 C 102.319 374.537,103.184 375.030,103.613 375.276 C 105.230 376.203,107.280 377.299,108.789 378.043 C 109.058 378.175,109.585 378.439,109.961 378.629 C 110.337 378.819,110.864 379.082,111.133 379.215 C 111.401 379.347,111.929 379.611,112.305 379.801 C 115.016 381.170,115.469 381.378,121.793 384.158 C 122.553 384.492,123.232 384.766,123.301 384.766 C 123.370 384.766,123.890 384.975,124.457 385.231 C 125.024 385.487,125.708 385.761,125.977 385.840 C 126.245 385.919,126.929 386.193,127.496 386.449 C 128.063 386.705,128.634 386.913,128.766 386.912 C 128.897 386.912,129.663 387.171,130.469 387.488 C 132.904 388.447,135.175 389.258,135.429 389.258 C 135.560 389.258,136.234 389.482,136.926 389.756 C 137.618 390.030,138.535 390.330,138.965 390.421 C 139.395 390.513,140.405 390.811,141.211 391.084 C 143.097 391.721,145.320 392.367,146.680 392.673 C 147.271 392.806,148.589 393.140,149.609 393.414 C 152.938 394.311,160.566 395.997,162.598 396.285 C 163.350 396.392,165.104 396.700,166.496 396.970 C 167.888 397.240,169.300 397.461,169.634 397.461 C 169.968 397.461,171.632 397.679,173.333 397.945 C 175.034 398.211,177.665 398.517,179.179 398.625 C 180.694 398.733,182.769 398.905,183.789 399.008 C 190.854 399.721,206.948 399.791,214.063 399.139 C 215.942 398.967,218.650 398.737,220.080 398.629 C 221.510 398.520,223.854 398.258,225.289 398.047 C 226.724 397.837,228.674 397.576,229.623 397.469 C 230.571 397.362,232.578 397.051,234.082 396.777 C 235.586 396.503,237.344 396.189,237.988 396.078 C 238.633 395.966,239.907 395.708,240.820 395.504 C 241.733 395.299,243.096 395.006,243.848 394.852 C 245.210 394.574,245.843 394.424,250.293 393.328 C 253.727 392.481,259.880 390.708,262.207 389.893 C 262.959 389.630,263.902 389.335,264.303 389.238 C 264.704 389.141,265.583 388.853,266.257 388.597 C 266.930 388.342,267.920 387.979,268.457 387.790 C 269.733 387.343,271.344 386.737,273.633 385.843 C 274.653 385.444,275.816 384.996,276.217 384.846 C 276.618 384.697,277.403 384.354,277.963 384.084 C 278.522 383.814,279.053 383.594,279.142 383.594 C 279.232 383.594,279.897 383.323,280.619 382.992 C 283.391 381.723,283.933 381.473,285.449 380.763 C 287.782 379.671,292.320 377.396,293.652 376.652 C 294.297 376.292,295.308 375.743,295.898 375.432 C 297.891 374.382,299.315 373.557,299.574 373.301 C 299.716 373.161,299.907 373.047,299.997 373.047 C 300.088 373.047,300.807 372.655,301.595 372.177 C 302.383 371.699,303.533 371.019,304.150 370.667 C 304.768 370.315,305.273 369.959,305.273 369.877 C 305.273 369.794,305.370 369.727,305.487 369.727 C 305.605 369.727,306.462 369.221,307.392 368.604 C 308.321 367.986,309.170 367.436,309.277 367.383 C 309.385 367.329,310.125 366.845,310.923 366.308 C 311.721 365.771,312.570 365.200,312.811 365.039 C 315.028 363.553,315.548 363.176,315.684 362.953 C 315.769 362.811,315.954 362.695,316.093 362.695 C 316.232 362.695,316.558 362.510,316.816 362.284 C 317.074 362.058,317.681 361.602,318.164 361.270 C 318.647 360.939,319.072 360.596,319.108 360.509 C 319.144 360.423,319.271 360.352,319.390 360.352 C 319.510 360.352,319.848 360.121,320.143 359.839 C 320.437 359.557,320.850 359.227,321.060 359.106 C 321.449 358.883,324.465 356.594,325.000 356.116 C 325.161 355.973,326.466 354.887,327.899 353.705 C 329.332 352.522,330.617 351.447,330.755 351.314 C 330.893 351.182,331.564 350.591,332.246 350.000 C 332.928 349.409,333.765 348.662,334.106 348.340 C 334.447 348.018,335.803 346.743,337.121 345.508 C 340.277 342.548,345.512 337.213,348.047 334.375 C 348.638 333.713,349.397 332.893,349.734 332.553 C 350.070 332.212,351.204 330.879,352.252 329.590 C 353.301 328.301,354.567 326.763,355.066 326.172 C 355.566 325.581,356.448 324.482,357.027 323.730 C 357.606 322.979,358.151 322.334,358.239 322.298 C 358.327 322.262,358.398 322.135,358.398 322.016 C 358.398 321.896,358.629 321.558,358.911 321.263 C 359.193 320.969,359.523 320.557,359.644 320.348 C 359.875 319.949,361.514 317.745,361.705 317.578 C 361.766 317.524,361.904 317.339,362.012 317.166 C 362.119 316.993,362.866 315.904,363.672 314.746 C 364.478 313.588,365.225 312.499,365.332 312.327 C 365.439 312.154,365.769 311.693,366.064 311.301 C 366.360 310.909,366.603 310.513,366.604 310.421 C 366.606 310.329,366.784 310.034,367.000 309.766 C 367.565 309.064,369.732 305.653,371.211 303.139 C 371.437 302.755,371.938 301.914,372.326 301.270 C 372.713 300.625,373.295 299.599,373.620 298.989 C 373.944 298.379,374.300 297.824,374.410 297.757 C 374.520 297.689,374.609 297.500,374.609 297.338 C 374.609 297.176,374.873 296.660,375.195 296.191 C 375.518 295.723,375.781 295.250,375.781 295.141 C 375.781 295.031,376.045 294.551,376.367 294.073 C 376.689 293.596,376.953 293.112,376.953 292.998 C 376.953 292.884,377.198 292.369,377.497 291.854 C 378.280 290.508,380.604 285.749,382.343 281.934 C 382.734 281.074,383.264 279.930,383.520 279.392 C 383.775 278.853,383.984 278.335,383.984 278.241 C 383.984 278.147,384.156 277.709,384.366 277.267 C 385.415 275.058,388.970 265.709,389.571 263.576 C 389.722 263.040,390.053 262.030,390.306 261.330 C 391.641 257.634,394.057 248.963,395.231 243.652 C 395.397 242.900,395.754 241.313,396.023 240.125 C 396.293 238.937,396.590 237.399,396.684 236.707 C 396.778 236.015,397.033 234.614,397.251 233.594 C 397.469 232.573,397.701 231.211,397.768 230.566 C 397.834 229.922,398.104 228.032,398.367 226.367 C 398.630 224.702,398.929 222.241,399.033 220.898 C 399.136 219.556,399.360 217.139,399.531 215.527 C 400.181 209.404,400.111 189.653,399.416 183.203 C 399.318 182.290,399.144 180.335,399.029 178.858 C 398.914 177.382,398.643 175.053,398.427 173.683 C 398.211 172.312,397.954 170.459,397.855 169.565 C 397.468 166.032,395.167 154.836,393.895 150.293 C 393.684 149.541,393.394 148.403,393.251 147.763 C 393.107 147.124,392.760 145.850,392.481 144.931 C 391.129 140.494,390.735 139.254,390.283 138.017 C 390.014 137.281,389.725 136.402,389.640 136.064 C 389.556 135.726,389.118 134.438,388.667 133.203 C 388.217 131.968,387.645 130.374,387.397 129.662 C 387.149 128.950,386.763 128.009,386.539 127.571 C 386.316 127.132,386.133 126.612,386.133 126.414 C 386.133 126.216,386.056 125.971,385.962 125.869 C 385.868 125.767,385.555 125.068,385.267 124.316 C 384.979 123.564,384.622 122.686,384.474 122.363 C 384.326 122.041,383.885 121.030,383.494 120.117 C 382.482 117.755,381.879 116.449,380.515 113.672 C 379.856 112.329,379.178 110.923,379.009 110.547 C 378.576 109.586,375.956 104.640,374.507 102.051 C 374.207 101.514,373.777 100.719,373.553 100.285 C 373.328 99.851,372.947 99.222,372.705 98.887 C 372.463 98.553,372.263 98.205,372.260 98.114 C 372.257 98.024,371.994 97.604,371.674 97.182 C 371.355 96.760,371.094 96.351,371.094 96.274 C 371.094 96.196,370.745 95.575,370.318 94.893 C 369.892 94.210,369.216 93.125,368.817 92.480 C 368.417 91.836,368.041 91.265,367.981 91.211 C 367.920 91.157,367.739 90.881,367.578 90.597 C 367.169 89.875,365.794 87.813,365.644 87.695 C 365.575 87.642,365.411 87.378,365.279 87.109 C 365.147 86.841,364.642 86.094,364.157 85.449 C 363.672 84.805,363.217 84.146,363.147 83.984 C 363.077 83.823,362.793 83.417,362.516 83.082 C 362.239 82.747,361.660 81.965,361.230 81.345 C 360.801 80.725,360.251 79.998,360.010 79.729 C 359.768 79.460,359.570 79.178,359.570 79.102 C 359.570 79.026,359.329 78.698,359.033 78.372 C 358.738 78.046,358.232 77.404,357.910 76.945 C 357.588 76.485,356.996 75.706,356.594 75.213 C 356.192 74.720,355.684 74.097,355.465 73.828 C 355.246 73.560,354.856 73.076,354.600 72.754 C 353.463 71.328,349.671 66.892,348.730 65.888 C 348.408 65.545,347.617 64.672,346.973 63.949 C 344.421 61.088,336.303 53.060,332.965 50.098 C 330.933 48.295,327.192 45.117,326.181 44.336 C 325.834 44.067,325.360 43.669,325.128 43.450 C 324.647 42.995,321.943 40.928,321.020 40.309 C 320.681 40.082,320.284 39.752,320.139 39.577 C 319.993 39.401,319.757 39.258,319.615 39.258 C 319.472 39.258,319.285 39.138,319.199 38.992 C 319.113 38.846,318.296 38.212,317.383 37.584 C 316.470 36.955,315.552 36.284,315.344 36.092 C 315.136 35.899,314.857 35.742,314.726 35.742 C 314.594 35.742,314.456 35.666,314.421 35.572 C 314.385 35.479,313.838 35.061,313.205 34.644 C 312.572 34.228,311.298 33.381,310.373 32.763 C 308.466 31.488,306.825 30.466,304.279 28.968 C 303.698 28.626,303.135 28.271,303.027 28.178 C 302.827 28.006,301.872 27.449,298.309 25.427 C 295.172 23.646,292.679 22.290,291.211 21.566 C 290.942 21.434,290.415 21.170,290.039 20.981 C 289.663 20.791,289.136 20.527,288.867 20.395 C 288.599 20.262,288.115 20.015,287.793 19.845 C 286.656 19.245,282.318 17.242,281.836 17.094 C 281.567 17.012,281.260 16.878,281.152 16.798 C 281.045 16.717,279.946 16.232,278.711 15.721 C 277.476 15.209,275.879 14.539,275.163 14.231 C 274.446 13.924,273.768 13.672,273.654 13.672 C 273.541 13.672,272.984 13.466,272.417 13.215 C 271.418 12.772,270.376 12.379,268.555 11.760 C 268.071 11.595,267.017 11.219,266.211 10.924 C 264.832 10.418,263.859 10.103,259.082 8.620 C 255.502 7.508,253.621 6.967,252.832 6.823 C 252.402 6.744,251.436 6.490,250.684 6.258 C 249.932 6.025,248.877 5.762,248.340 5.673 C 247.803 5.583,246.440 5.284,245.313 5.007 C 242.726 4.372,238.184 3.414,236.523 3.154 C 235.825 3.044,234.199 2.778,232.910 2.562 C 228.696 1.856,223.498 1.151,221.150 0.968 C 219.884 0.869,217.485 0.644,215.820 0.468 C 212.467 0.114,190.473 -0.097,186.914 0.190 M202.930 28.317 C 286.282 31.084,359.002 94.649,368.840 173.340 C 369.108 175.488,369.550 178.872,369.822 180.859 C 382.455 273.321,306.940 365.166,214.453 369.827 C 213.110 369.894,210.518 370.075,208.691 370.227 C 182.945 372.382,154.651 367.238,130.469 356.004 C 88.720 336.612,57.204 303.632,40.178 261.523 C 34.717 248.015,30.880 230.806,29.989 215.820 C 29.928 214.800,29.727 211.899,29.543 209.375 C 25.349 151.987,52.565 95.125,100.977 60.129 C 114.479 50.368,128.248 43.457,147.852 36.603 C 161.903 31.690,177.399 28.823,192.578 28.329 C 194.888 28.253,196.953 28.180,197.168 28.165 C 197.383 28.151,199.976 28.219,202.930 28.317 M280.545 83.747 C 279.781 84.361,277.028 86.533,274.429 88.574 C 268.730 93.048,259.020 100.760,257.129 102.314 C 256.377 102.932,253.696 105.101,251.172 107.135 C 239.570 116.480,227.795 126.195,194.258 154.096 C 177.891 167.711,162.189 180.712,155.328 186.328 L 151.391 189.551 170.275 189.657 C 180.662 189.716,194.216 189.724,200.395 189.676 L 211.629 189.588 214.061 185.858 C 216.317 182.398,219.296 177.857,224.706 169.629 C 227.695 165.082,234.889 154.221,244.629 139.551 C 256.942 121.005,265.194 108.558,268.130 104.102 C 278.811 87.893,282.237 82.616,282.072 82.624 C 281.996 82.628,281.309 83.134,280.545 83.747 M185.352 214.135 C 175.616 229.004,168.155 240.319,157.129 256.934 C 144.235 276.363,135.344 289.796,129.592 298.535 C 127.584 301.585,126.420 303.358,119.937 313.239 C 118.718 315.096,117.758 316.651,117.802 316.695 C 118.010 316.903,143.237 296.871,157.031 285.544 C 165.388 278.682,172.058 273.190,175.977 269.944 C 183.968 263.323,188.353 259.676,197.638 251.925 C 205.533 245.334,226.466 227.967,228.809 226.064 C 229.453 225.540,231.167 224.136,232.617 222.942 C 235.591 220.494,240.362 216.602,245.174 212.695 L 248.422 210.059 245.061 209.938 C 243.212 209.871,229.702 209.748,215.039 209.664 L 188.379 209.511 185.352 214.135 " stroke="none" fill="#040404" fill-rule="evenodd"></path><path id="path1" d="M192.062 28.526 C 161.754 29.443,128.023 41.154,101.465 59.979 C 76.199 77.889,54.113 105.322,42.672 133.008 C 42.428 133.599,41.862 134.961,41.414 136.035 C 38.317 143.466,35.031 153.858,33.294 161.719 C 32.361 165.942,32.231 166.566,31.751 169.141 C 31.285 171.643,30.527 176.927,30.085 180.762 C 29.309 187.501,29.098 198.548,29.587 206.836 C 29.748 209.575,29.973 213.354,30.085 215.234 C 33.205 267.404,65.507 318.562,113.086 346.685 C 143.457 364.638,174.394 372.312,207.641 370.141 C 211.119 369.914,215.371 369.635,217.090 369.521 C 233.985 368.400,251.689 363.962,268.066 356.743 C 274.524 353.897,282.821 349.522,288.086 346.187 C 346.931 308.911,378.704 243.624,369.444 179.013 C 369.182 177.182,368.694 173.638,368.361 171.137 C 366.998 160.908,364.538 150.838,361.028 141.113 C 359.732 137.520,359.616 137.215,358.927 135.547 C 340.714 91.448,304.208 56.855,257.324 39.267 C 236.334 31.393,214.742 27.839,192.062 28.526 M280.651 85.296 C 279.541 86.991,277.538 90.049,276.198 92.090 C 274.859 94.131,272.957 97.031,271.972 98.535 C 268.254 104.208,259.825 116.929,240.137 146.582 C 230.489 161.112,221.007 175.484,215.397 184.082 C 213.785 186.553,212.276 188.859,212.043 189.208 L 211.621 189.841 203.223 189.881 C 190.569 189.940,158.961 189.802,154.811 189.668 L 151.159 189.551 153.550 187.598 C 157.386 184.464,170.261 173.850,174.512 170.316 C 188.125 158.999,207.061 143.246,209.961 140.824 C 213.676 137.721,227.533 126.256,231.934 122.644 C 245.054 111.874,251.423 106.700,260.647 99.319 C 272.183 90.087,282.479 82.023,282.589 82.133 C 282.633 82.177,281.760 83.600,280.651 85.296 M245.215 209.744 L 248.926 209.863 245.605 212.540 C 240.324 216.798,239.803 217.222,233.887 222.091 C 221.223 232.514,217.071 235.941,213.086 239.260 C 210.562 241.363,203.223 247.467,196.777 252.825 C 190.332 258.183,184.048 263.414,182.813 264.451 C 177.080 269.261,161.592 282.018,151.953 289.870 C 138.730 300.642,117.420 317.485,117.241 317.306 C 117.197 317.262,117.900 316.097,118.803 314.716 C 128.807 299.429,133.010 293.060,149.773 267.773 C 169.273 238.359,175.908 228.319,180.033 221.988 C 180.728 220.922,182.310 218.505,183.549 216.617 C 184.788 214.728,186.369 212.313,187.062 211.248 L 188.323 209.313 214.914 209.469 C 229.538 209.555,243.174 209.678,245.215 209.744 " stroke="none" fill="#fbfbfb" fill-rule="evenodd"></path><path id="path2" d="M193.026 28.465 C 193.755 28.503,194.898 28.503,195.565 28.465 C 196.232 28.427,195.635 28.396,194.238 28.396 C 192.842 28.397,192.296 28.428,193.026 28.465 M200.643 28.465 C 201.372 28.503,202.515 28.503,203.182 28.465 C 203.849 28.427,203.252 28.396,201.855 28.396 C 200.459 28.397,199.913 28.428,200.643 28.465 M188.525 28.650 C 188.713 28.699,189.021 28.699,189.209 28.650 C 189.397 28.601,189.243 28.561,188.867 28.561 C 188.491 28.561,188.337 28.601,188.525 28.650 M206.787 28.653 C 207.029 28.700,207.424 28.700,207.666 28.653 C 207.908 28.607,207.710 28.569,207.227 28.569 C 206.743 28.569,206.545 28.607,206.787 28.653 M83.974 74.170 L 83.301 74.902 84.033 74.229 C 84.436 73.859,84.766 73.529,84.766 73.497 C 84.766 73.348,84.600 73.488,83.974 74.170 M79.585 78.369 L 78.027 79.980 79.639 78.423 C 80.525 77.566,81.250 76.841,81.250 76.811 C 81.250 76.669,81.032 76.873,79.585 78.369 M318.937 77.588 C 319.747 78.450,319.922 78.605,319.922 78.459 C 319.922 78.427,319.504 78.010,318.994 77.531 L 318.066 76.660 318.937 77.588 M75.476 82.666 L 74.902 83.301 75.537 82.727 C 76.129 82.192,76.262 82.031,76.111 82.031 C 76.077 82.031,75.792 82.317,75.476 82.666 M325.586 84.277 C 325.950 84.653,326.292 84.961,326.346 84.961 C 326.400 84.961,326.146 84.653,325.781 84.277 C 325.417 83.901,325.075 83.594,325.021 83.594 C 324.967 83.594,325.222 83.901,325.586 84.277 M29.548 186.426 C 29.550 186.963,29.587 187.159,29.632 186.863 C 29.677 186.566,29.676 186.126,29.630 185.886 C 29.583 185.646,29.547 185.889,29.548 186.426 M370.358 186.719 C 370.358 187.095,370.398 187.249,370.447 187.061 C 370.496 186.873,370.496 186.565,370.447 186.377 C 370.398 186.189,370.358 186.343,370.358 186.719 M29.355 189.648 C 29.355 190.239,29.392 190.481,29.437 190.186 C 29.482 189.890,29.482 189.407,29.437 189.111 C 29.392 188.816,29.355 189.058,29.355 189.648 M158.064 189.793 C 158.685 189.832,159.652 189.832,160.212 189.792 C 160.772 189.753,160.264 189.721,159.082 189.721 C 157.900 189.722,157.442 189.754,158.064 189.793 M188.135 189.990 C 189.397 190.024,191.462 190.024,192.725 189.990 C 193.987 189.956,192.954 189.928,190.430 189.928 C 187.905 189.928,186.873 189.956,188.135 189.990 M370.948 194.434 C 370.950 194.863,370.990 195.016,371.037 194.773 C 371.083 194.530,371.082 194.179,371.033 193.992 C 370.984 193.805,370.946 194.004,370.948 194.434 M29.175 197.363 C 29.175 198.545,29.207 199.003,29.246 198.382 C 29.285 197.760,29.285 196.793,29.245 196.233 C 29.206 195.673,29.174 196.182,29.175 197.363 M371.161 201.660 C 371.161 202.520,371.196 202.847,371.237 202.387 C 371.278 201.928,371.278 201.225,371.236 200.825 C 371.194 200.425,371.160 200.801,371.161 201.660 M29.353 204.199 C 29.354 204.736,29.392 204.933,29.437 204.636 C 29.482 204.339,29.481 203.900,29.434 203.659 C 29.388 203.419,29.351 203.662,29.353 204.199 M29.545 207.422 C 29.545 207.905,29.583 208.103,29.630 207.861 C 29.677 207.620,29.677 207.224,29.630 206.982 C 29.583 206.741,29.545 206.938,29.545 207.422 M370.952 208.789 C 370.952 209.272,370.990 209.470,371.036 209.229 C 371.083 208.987,371.083 208.591,371.036 208.350 C 370.990 208.108,370.952 208.306,370.952 208.789 M196.240 209.521 C 200.671 209.551,207.922 209.551,212.354 209.521 C 216.785 209.492,213.159 209.468,204.297 209.468 C 195.435 209.468,191.809 209.492,196.240 209.521 M236.171 209.716 C 237.320 209.750,239.253 209.751,240.468 209.716 C 241.682 209.682,240.742 209.654,238.379 209.654 C 236.016 209.653,235.022 209.681,236.171 209.716 M370.358 216.602 C 370.358 216.978,370.398 217.131,370.447 216.943 C 370.496 216.755,370.496 216.448,370.447 216.260 C 370.398 216.072,370.358 216.226,370.358 216.602 M326.843 313.525 L 326.270 314.160 326.904 313.587 C 327.496 313.052,327.629 312.891,327.478 312.891 C 327.444 312.891,327.159 313.176,326.843 313.525 M319.434 321.289 C 317.825 322.900,316.553 324.219,316.606 324.219 C 316.660 324.219,318.020 322.900,319.629 321.289 C 321.238 319.678,322.510 318.359,322.456 318.359 C 322.402 318.359,321.042 319.678,319.434 321.289 M80.851 321.924 C 81.661 322.786,81.836 322.941,81.836 322.795 C 81.836 322.763,81.418 322.346,80.908 321.867 L 79.980 320.996 80.851 321.924 M314.148 326.416 L 313.574 327.051 314.209 326.477 C 314.801 325.942,314.934 325.781,314.783 325.781 C 314.749 325.781,314.463 326.067,314.148 326.416 M212.259 369.868 C 212.610 369.912,213.138 369.911,213.431 369.866 C 213.725 369.822,213.438 369.786,212.793 369.787 C 212.148 369.788,211.908 369.825,212.259 369.868 M183.057 370.057 C 183.245 370.106,183.552 370.106,183.740 370.057 C 183.928 370.007,183.774 369.967,183.398 369.967 C 183.022 369.967,182.869 370.007,183.057 370.057 M209.033 370.057 C 209.221 370.106,209.529 370.106,209.717 370.057 C 209.905 370.007,209.751 369.967,209.375 369.967 C 208.999 369.967,208.845 370.007,209.033 370.057 M185.696 370.255 C 185.939 370.302,186.290 370.300,186.477 370.251 C 186.664 370.202,186.465 370.164,186.035 370.166 C 185.605 370.169,185.453 370.209,185.696 370.255 M206.494 370.252 C 206.682 370.301,206.990 370.301,207.178 370.252 C 207.366 370.203,207.212 370.163,206.836 370.163 C 206.460 370.163,206.306 370.203,206.494 370.252 M188.721 370.447 C 188.909 370.496,189.216 370.496,189.404 370.447 C 189.592 370.398,189.438 370.358,189.063 370.358 C 188.687 370.358,188.533 370.398,188.721 370.447 M194.775 370.653 C 195.715 370.689,197.253 370.689,198.193 370.653 C 199.133 370.617,198.364 370.588,196.484 370.588 C 194.604 370.588,193.835 370.617,194.775 370.653 " stroke="none" fill="#a2a2a2" fill-rule="evenodd"></path><path id="path3" d="M197.314 28.267 C 197.717 28.309,198.376 28.309,198.779 28.267 C 199.182 28.225,198.853 28.191,198.047 28.191 C 197.241 28.191,196.912 28.225,197.314 28.267 M190.088 28.460 C 190.383 28.505,190.867 28.505,191.162 28.460 C 191.458 28.415,191.216 28.379,190.625 28.379 C 190.034 28.379,189.792 28.415,190.088 28.460 M204.932 28.460 C 205.227 28.505,205.710 28.505,206.006 28.460 C 206.301 28.415,206.060 28.379,205.469 28.379 C 204.878 28.379,204.636 28.415,204.932 28.460 M82.317 75.635 L 81.348 76.660 82.373 75.691 C 82.937 75.158,83.398 74.696,83.398 74.666 C 83.398 74.520,83.217 74.682,82.317 75.635 M322.559 81.055 C 323.844 82.344,324.940 83.398,324.994 83.398 C 325.048 83.398,324.040 82.344,322.754 81.055 C 321.468 79.766,320.372 78.711,320.319 78.711 C 320.265 78.711,321.273 79.766,322.559 81.055 M77.043 80.908 L 76.074 81.934 77.100 80.964 C 77.664 80.431,78.125 79.970,78.125 79.939 C 78.125 79.793,77.944 79.955,77.043 80.908 M326.953 85.608 C 326.953 85.642,327.239 85.927,327.588 86.243 L 328.223 86.816 327.649 86.182 C 327.114 85.590,326.953 85.457,326.953 85.608 M29.342 187.891 C 29.342 188.267,29.382 188.420,29.432 188.232 C 29.481 188.044,29.481 187.737,29.432 187.549 C 29.382 187.361,29.342 187.515,29.342 187.891 M170.863 189.795 C 173.691 189.825,178.261 189.825,181.020 189.795 C 183.778 189.764,181.465 189.739,175.879 189.739 C 170.293 189.739,168.036 189.764,170.863 189.795 M199.170 189.795 C 201.453 189.826,205.188 189.826,207.471 189.795 C 209.753 189.763,207.886 189.738,203.320 189.738 C 198.755 189.738,196.887 189.763,199.170 189.795 M29.147 192.188 C 29.147 192.563,29.187 192.717,29.236 192.529 C 29.285 192.341,29.285 192.034,29.236 191.846 C 29.187 191.658,29.147 191.812,29.147 192.188 M371.158 198.730 C 371.159 199.482,371.194 199.766,371.236 199.361 C 371.279 198.956,371.278 198.340,371.235 197.994 C 371.192 197.647,371.157 197.979,371.158 198.730 M29.157 201.660 C 29.159 202.197,29.197 202.394,29.242 202.097 C 29.287 201.800,29.285 201.361,29.239 201.120 C 29.193 200.880,29.156 201.123,29.157 201.660 M371.156 204.297 C 371.156 204.995,371.192 205.281,371.235 204.932 C 371.278 204.583,371.278 204.011,371.235 203.662 C 371.192 203.313,371.156 203.599,371.156 204.297 M29.346 205.957 C 29.348 206.387,29.388 206.540,29.435 206.297 C 29.482 206.054,29.480 205.702,29.431 205.515 C 29.382 205.329,29.344 205.527,29.346 205.957 M223.682 209.716 C 225.588 209.748,228.708 209.748,230.615 209.716 C 232.522 209.685,230.962 209.658,227.148 209.658 C 223.335 209.658,221.775 209.685,223.682 209.716 M244.189 209.911 C 245.022 209.947,246.384 209.947,247.217 209.911 C 248.049 209.874,247.368 209.844,245.703 209.844 C 244.038 209.844,243.357 209.874,244.189 209.911 M29.733 211.719 C 29.733 212.095,29.773 212.249,29.822 212.061 C 29.871 211.873,29.871 211.565,29.822 211.377 C 29.773 211.189,29.733 211.343,29.733 211.719 M73.828 314.905 C 73.828 314.938,74.114 315.224,74.463 315.540 L 75.098 316.113 74.524 315.479 C 73.989 314.887,73.828 314.754,73.828 314.905 M324.013 316.748 L 323.340 317.480 324.072 316.807 C 324.754 316.181,324.894 316.016,324.745 316.016 C 324.713 316.016,324.383 316.345,324.013 316.748 M82.813 323.889 C 82.813 323.923,83.098 324.208,83.447 324.524 L 84.082 325.098 83.508 324.463 C 82.974 323.871,82.813 323.738,82.813 323.889 M184.229 370.252 C 184.417 370.301,184.724 370.301,184.912 370.252 C 185.100 370.203,184.946 370.163,184.570 370.163 C 184.194 370.163,184.041 370.203,184.229 370.252 M207.861 370.252 C 208.049 370.301,208.357 370.301,208.545 370.252 C 208.733 370.203,208.579 370.163,208.203 370.163 C 207.827 370.163,207.673 370.203,207.861 370.252 M187.063 370.451 C 187.306 370.497,187.657 370.496,187.844 370.447 C 188.031 370.398,187.832 370.360,187.402 370.362 C 186.973 370.364,186.820 370.404,187.063 370.451 M205.227 370.451 C 205.470 370.497,205.821 370.496,206.008 370.447 C 206.195 370.398,205.996 370.360,205.566 370.362 C 205.137 370.364,204.984 370.404,205.227 370.451 M191.943 370.646 C 192.185 370.692,192.581 370.692,192.822 370.646 C 193.064 370.599,192.866 370.561,192.383 370.561 C 191.899 370.561,191.702 370.599,191.943 370.646 M200.247 370.648 C 200.544 370.693,200.983 370.692,201.223 370.645 C 201.464 370.599,201.221 370.562,200.684 370.564 C 200.146 370.565,199.950 370.603,200.247 370.648 " stroke="none" fill="#747474" fill-rule="evenodd"></path><path id="path4" d="M162.256 189.793 C 162.927 189.831,164.026 189.831,164.697 189.793 C 165.369 189.755,164.819 189.724,163.477 189.724 C 162.134 189.724,161.584 189.755,162.256 189.793 M29.166 194.043 C 29.167 194.795,29.202 195.079,29.244 194.673 C 29.286 194.268,29.286 193.653,29.243 193.306 C 29.199 192.959,29.165 193.291,29.166 194.043 M29.151 200.098 C 29.153 200.527,29.193 200.680,29.240 200.437 C 29.286 200.194,29.285 199.843,29.236 199.656 C 29.187 199.469,29.149 199.668,29.151 200.098 " stroke="none" fill="#7c7c7c" fill-rule="evenodd"></path></g></svg>