<?xml version="1.0" encoding="UTF-8"?>
<svg version="1.1" xmlns="http://www.w3.org/2000/svg" width="1955" height="2048">
<path d="M0 0 C1.90817326 -0.00300192 3.81634592 -0.00640677 5.72451782 -0.01017761 C10.85820865 -0.01892616 15.99188275 -0.02135209 21.12558031 -0.0219934 C24.35658339 -0.0227102 27.58758239 -0.02485647 30.81858444 -0.02749062 C42.15965793 -0.03672048 53.50071976 -0.04082929 64.84179688 -0.04003906 C75.29669163 -0.03944194 85.75153418 -0.04992753 96.20641577 -0.06578273 C105.26890249 -0.07902016 114.33137253 -0.08421615 123.3938688 -0.08358365 C128.76717175 -0.08333295 134.14042843 -0.08593832 139.51372147 -0.0967617 C165.82457911 -0.14610501 191.9958056 0.44129623 218.26053262 2.02757204 C222.25042554 2.26576661 226.24150041 2.48324675 230.23234272 2.70482826 C234.54642894 2.95107709 238.85805573 3.23083337 243.16943359 3.52026367 C244.07632935 3.58051727 244.9832251 3.64077087 245.91760254 3.70285034 C259.71494224 4.63766075 273.1933357 6.19282353 286.79980469 8.71948242 C290.44914586 9.35835524 294.11407774 9.79206491 297.79443359 10.20776367 C303.7174742 10.90568191 309.52261545 11.89346393 315.37036133 13.04003906 C319.68700417 13.87981363 323.9987177 14.56157404 328.35693359 15.14526367 C334.22768223 15.94400498 339.94482449 17.13360615 345.72412109 18.42651367 C349.2608829 19.15119538 352.77829664 19.6733555 356.35693359 20.14526367 C361.73168896 20.86786967 366.84161983 21.98443507 372.07958984 23.36791992 C375.55087688 24.22391263 379.02646178 24.88292384 382.54443359 25.52026367 C389.51141541 26.78274848 396.43590018 28.21418838 403.35693359 29.70776367 C404.34089111 29.91771973 405.32484863 30.12767578 406.33862305 30.34399414 C411.08635999 31.37708733 415.62974037 32.57426004 420.23193359 34.14526367 C422.55889655 34.67411889 424.89276301 35.17332575 427.23193359 35.64526367 C431.70434266 36.54759182 435.91186071 37.68952288 440.23193359 39.14526367 C441.82986554 39.48822204 443.43433961 39.80239905 445.04443359 40.08276367 C449.13620156 40.86330957 452.9272593 41.99560796 456.85302734 43.36791992 C459.43751849 44.21244166 462.02766918 44.87708306 464.66943359 45.52026367 C478.37002946 48.87161348 491.79415528 52.86743011 505.13720703 57.4309082 C508.26735829 58.49837004 511.40597197 59.5400286 514.54443359 60.58276367 C515.73939453 60.98237305 516.93435547 61.38198242 518.16552734 61.79370117 C521.27869836 62.83221279 524.39723605 63.85357533 527.51708984 64.87182617 C528.44158936 65.17548096 529.36608887 65.47913574 530.31860352 65.79199219 C532.1235251 66.38478274 533.92961016 66.97404727 535.73706055 67.55908203 C540.71719941 69.20005281 545.48544659 71.07375606 550.25341797 73.25488281 C552.64272612 74.33013045 555.06904395 75.22604987 557.54443359 76.08276367 C563.53624767 78.21912078 569.37490298 80.66728918 575.23193359 83.14526367 C577.29411893 84.00018975 579.35661592 84.85436448 581.41943359 85.70776367 C585.66276764 87.47581953 589.87991427 89.2897949 594.07177734 91.17651367 C595.5803997 91.85307487 597.09385955 92.51890645 598.61083984 93.17651367 C601.78816287 94.55841364 604.83260906 95.9017731 607.79443359 97.70776367 C610.32890426 99.30875527 610.32890426 99.30875527 613.79443359 100.39526367 C618.6993902 102.14172549 622.97230759 104.85297843 627.42333984 107.52026367 C630.28418569 109.25006209 630.28418569 109.25006209 633.73193359 110.64526367 C638.17959257 112.55140323 642.21971555 114.98171991 646.37646484 117.44995117 C648.54262827 118.7360181 650.71713888 119.98597779 652.91943359 121.20776367 C656.40548595 123.24677543 659.7088097 125.47030731 663.02099609 127.77807617 C665.35004846 129.2183029 667.66664891 130.20015879 670.23193359 131.14526367 C670.23193359 131.80526367 670.23193359 132.46526367 670.23193359 133.14526367 C671.13943359 133.41338867 672.04693359 133.68151367 672.98193359 133.95776367 C675.96185194 135.04657999 677.91783719 136.00917468 680.23193359 138.14526367 C680.23193359 138.80526367 680.23193359 139.46526367 680.23193359 140.14526367 C680.82635254 140.26732178 681.42077148 140.38937988 682.03320312 140.51513672 C685.5417197 141.52063098 688.2221539 143.79816238 691.10693359 145.95776367 C691.76314697 146.4440625 692.41936035 146.93036133 693.09545898 147.43139648 C699.57317305 152.29336652 705.7083356 157.52180695 711.78222656 162.87475586 C712.97356076 163.91882847 714.18073684 164.94479769 715.39208984 165.96557617 C742.46309861 188.84086595 742.46309861 188.84086595 744.77490234 198.38745117 C745.00113281 199.25756836 745.00113281 199.25756836 745.23193359 200.14526367 C746.22193359 200.47526367 747.21193359 200.80526367 748.23193359 201.14526367 C750.05615234 203.54370117 750.05615234 203.54370117 751.91943359 206.52026367 C752.54205078 207.49737305 753.16466797 208.47448242 753.80615234 209.48120117 C755.23193359 212.14526367 755.23193359 212.14526367 755.23193359 215.14526367 C755.89193359 215.14526367 756.55193359 215.14526367 757.23193359 215.14526367 C789.02287271 266.49985763 775.53289321 353.96857956 775.4671559 412.3936131 C775.45644079 422.30318351 775.4578428 432.21274463 775.45942852 442.1223194 C775.4620319 460.39765111 775.45546775 478.67296815 775.44339371 496.94829559 C775.4314966 515.00272444 775.42384921 533.05714716 775.42168808 551.1115799 C775.4215506 552.24065075 775.42141312 553.36972161 775.42127148 554.53300674 C775.42059467 560.26865758 775.41999195 566.00430842 775.41941772 571.73995927 C775.41523412 612.20270159 775.40180791 652.66543597 775.3828125 693.12817383 C775.36439796 732.39933226 775.35025322 771.6704885 775.34179688 810.94165039 C775.3414023 812.76235687 775.3414023 812.76235687 775.34099975 814.6198453 C775.33836236 826.81108279 775.33581078 839.0023203 775.33332203 851.19355783 C775.32825171 876.02114886 775.3226092 900.84873974 775.31661987 925.67633057 C775.31634529 926.81747594 775.31607071 927.95862131 775.31578781 929.13434685 C775.29743448 1005.13798909 775.26574989 1081.14162693 775.23193359 1157.14526367 C774.3331826 1157.27323586 774.3331826 1157.27323586 773.41627502 1157.40379333 C770.66858946 1157.79519762 767.92096431 1158.18702446 765.17333984 1158.57885742 C764.23091431 1158.71304077 763.28848877 1158.84722412 762.31750488 1158.98547363 C757.26493734 1159.70632568 752.21544237 1160.4423986 747.16943359 1161.20776367 C742.67160907 1161.85855742 738.18642719 1162.34218151 733.66162109 1162.74047852 C723.92827133 1163.61092479 714.30808508 1164.98921003 704.66943359 1166.58276367 C702.7793457 1166.89080933 702.7793457 1166.89080933 700.85107422 1167.20507812 C694.38105619 1168.30012953 688.10500586 1169.62847425 681.80029297 1171.4453125 C679.25852663 1172.13801631 676.72999374 1172.67127847 674.14208984 1173.16088867 C669.21510296 1174.1052845 664.46355512 1175.42683294 659.66943359 1176.89526367 C658.36872925 1177.29104614 658.36872925 1177.29104614 657.04174805 1177.69482422 C635.59492742 1184.29580761 614.36708088 1192.22135463 594.23193359 1202.14526367 C593.56049316 1202.47413574 592.88905273 1202.80300781 592.19726562 1203.1418457 C581.28442452 1208.49384318 570.70887865 1214.24754388 560.22412109 1220.39916992 C558.100383 1221.63847923 555.96495323 1222.85784942 553.82177734 1224.06323242 C549.43612923 1226.56252201 545.2462787 1229.35049033 541.04248047 1232.14135742 C536.4468033 1235.14526367 536.4468033 1235.14526367 534.23193359 1235.14526367 C534.23193359 1235.80526367 534.23193359 1236.46526367 534.23193359 1237.14526367 C532.58193359 1237.47526367 530.93193359 1237.80526367 529.23193359 1238.14526367 C528.90193359 1239.13526367 528.57193359 1240.12526367 528.23193359 1241.14526367 C526.12706258 1242.58330227 524.06160109 1243.88138101 521.85693359 1245.14526367 C518.30352811 1247.20903192 515.07823754 1249.14756058 512.23193359 1252.14526367 C510.20422798 1253.75170081 508.16756341 1255.33242646 506.10693359 1256.89526367 C504.94016939 1257.78706316 503.77350322 1258.67899092 502.60693359 1259.57104492 C502.03458984 1260.00755371 501.46224609 1260.4440625 500.87255859 1260.89379883 C498.6127692 1262.61756079 496.35737541 1264.34681431 494.10693359 1266.08276367 C493.42373047 1266.60741211 492.74052734 1267.13206055 492.03662109 1267.67260742 C489.35763713 1269.85870472 487.08660268 1272.3014944 484.73193359 1274.83276367 C482.23193359 1277.14526367 482.23193359 1277.14526367 479.23193359 1277.14526367 C478.82974609 1278.10432617 478.82974609 1278.10432617 478.41943359 1279.08276367 C477.23193359 1281.14526367 477.23193359 1281.14526367 474.23193359 1282.14526367 C474.23193359 1282.80526367 474.23193359 1283.46526367 474.23193359 1284.14526367 C472.81152344 1285.54663086 472.81152344 1285.54663086 470.81787109 1287.19213867 C465.91923754 1291.35889176 461.39116065 1295.83862693 456.85693359 1300.39526367 C456.05126953 1301.19706055 455.24560547 1301.99885742 454.41552734 1302.82495117 C453.64595703 1303.59581055 452.87638672 1304.36666992 452.08349609 1305.16088867 C451.39078613 1305.85472656 450.69807617 1306.54856445 449.984375 1307.26342773 C448.06013422 1309.22843606 448.06013422 1309.22843606 446.23193359 1312.14526367 C445.57193359 1312.14526367 444.91193359 1312.14526367 444.23193359 1312.14526367 C443.82974609 1313.10432617 443.82974609 1313.10432617 443.41943359 1314.08276367 C442.23193359 1316.14526367 442.23193359 1316.14526367 439.23193359 1317.14526367 C438.88850911 1318.47603357 438.55573486 1319.80958346 438.23193359 1321.14526367 C437.24193359 1321.80526367 436.25193359 1322.46526367 435.23193359 1323.14526367 C434.90193359 1323.80526367 434.57193359 1324.46526367 434.23193359 1325.14526367 C433.23193359 1327.14526367 433.23193359 1327.14526367 430.23193359 1329.14526367 C429.90193359 1330.13526367 429.57193359 1331.12526367 429.23193359 1332.14526367 C428.08212203 1333.26125724 426.93022711 1334.37519693 425.76708984 1335.47729492 C423.08053557 1338.39627374 420.98021784 1341.74207043 418.78271484 1345.03588867 C417.23193359 1347.14526367 417.23193359 1347.14526367 415.23193359 1348.14526367 C414.20180082 1349.79347611 413.21128283 1351.46637927 412.23193359 1353.14526367 C411.22441838 1354.75782824 410.20259851 1356.3615113 409.16943359 1357.95776367 C408.66283203 1358.74795898 408.15623047 1359.5381543 407.63427734 1360.35229492 C407.17150391 1360.94397461 406.70873047 1361.5356543 406.23193359 1362.14526367 C405.57193359 1362.14526367 404.91193359 1362.14526367 404.23193359 1362.14526367 C403.90193359 1363.79526367 403.57193359 1365.44526367 403.23193359 1367.14526367 C402.57193359 1367.14526367 401.91193359 1367.14526367 401.23193359 1367.14526367 C400.95865234 1367.87358398 400.68537109 1368.6019043 400.40380859 1369.35229492 C399.28098844 1372.02834963 398.00006713 1374.36375617 396.48193359 1376.83276367 C395.95083984 1377.70288086 395.41974609 1378.57299805 394.87255859 1379.46948242 C394.06044922 1380.79399414 394.06044922 1380.79399414 393.23193359 1382.14526367 C392.23003556 1383.81079005 391.23000168 1385.47743938 390.23193359 1387.14526367 C384.23193359 1397.14526367 384.23193359 1397.14526367 382.74365234 1399.61010742 C381.68634763 1401.38321016 380.64882303 1403.16818998 379.62646484 1404.96166992 C379.10439453 1405.86788086 378.58232422 1406.7740918 378.04443359 1407.70776367 C377.57650391 1408.53405273 377.10857422 1409.3603418 376.62646484 1410.21166992 C375.23193359 1412.14526367 375.23193359 1412.14526367 372.23193359 1413.14526367 C370.1846188 1413.26278325 368.13392996 1413.32411254 366.08349609 1413.35620117 C364.79032471 1413.38254639 363.49715332 1413.4088916 362.16479492 1413.43603516 C361.4659317 1413.44931854 360.76706848 1413.46260193 360.04702759 1413.47628784 C339.33820135 1413.89210918 318.70711463 1415.2869793 298.05371094 1416.79858398 C294.15225884 1417.08279761 290.24974678 1417.33625674 286.34521484 1417.57495117 C258.92303856 1419.38746441 230.5720986 1425.44608289 205.23193359 1436.14526367 C204.42691406 1436.48493164 203.62189453 1436.82459961 202.79248047 1437.17456055 C194.16183556 1440.82526718 185.54874975 1444.50806806 177.03564453 1448.42626953 C175.23193359 1449.14526367 175.23193359 1449.14526367 173.23193359 1449.14526367 C173.23193359 1449.80526367 173.23193359 1450.46526367 173.23193359 1451.14526367 C170.65102592 1452.46272701 168.06742902 1453.77435985 165.48193359 1455.08276367 C164.75232422 1455.45594727 164.02271484 1455.82913086 163.27099609 1456.21362305 C162.56201172 1456.57133789 161.85302734 1456.92905273 161.12255859 1457.29760742 C160.47319336 1457.62752686 159.82382812 1457.95744629 159.15478516 1458.29736328 C157.1990028 1459.15978483 155.31652665 1459.68900546 153.23193359 1460.14526367 C153.23193359 1460.80526367 153.23193359 1461.46526367 153.23193359 1462.14526367 C152.42755859 1462.51651367 151.62318359 1462.88776367 150.79443359 1463.27026367 C147.34394849 1465.00349346 144.20343596 1467.08982884 141.01318359 1469.25854492 C138.81399806 1470.75040814 136.60592291 1472.22432993 134.38818359 1473.68823242 C133.37679321 1474.35713501 133.37679321 1474.35713501 132.3449707 1475.03955078 C130.99255034 1475.93370369 129.63921631 1476.82647641 128.28491211 1477.71777344 C125.74690549 1479.40137566 123.391563 1480.98563426 121.23193359 1483.14526367 C120.24193359 1483.14526367 119.25193359 1483.14526367 118.23193359 1483.14526367 C118.02181641 1483.71245117 117.81169922 1484.27963867 117.59521484 1484.86401367 C115.73384593 1487.97873988 113.35524617 1489.53118902 110.41943359 1491.64526367 C103.27760514 1496.78768433 103.27760514 1496.78768433 96.73193359 1502.64526367 C94.23193359 1505.14526367 94.23193359 1505.14526367 91.85693359 1506.95776367 C88.85600334 1509.45853888 86.45873374 1512.23168385 83.92724609 1515.19604492 C81.80963698 1517.63080747 79.51302819 1519.86416907 77.23193359 1522.14526367 C76.40693359 1523.13526367 75.58193359 1524.12526367 74.73193359 1525.14526367 C72.23193359 1528.14526367 72.23193359 1528.14526367 69.84130859 1530.51635742 C59.60571326 1540.8285665 51.08771949 1553.14420392 43.14599609 1565.26245117 C41.31553485 1568.01934994 39.41297045 1570.70824642 37.48193359 1573.39526367 C35.03583838 1576.86286591 33.03654129 1580.29857825 31.23583984 1584.13354492 C30.15408742 1586.30125892 28.90610828 1588.28810157 27.60693359 1590.33276367 C24.39987978 1595.59331368 21.75484071 1601.08951727 19.10693359 1606.64526367 C18.68718262 1607.52335693 18.26743164 1608.4014502 17.83496094 1609.30615234 C15.40970526 1614.44844178 13.18390171 1619.63354677 11.10742188 1624.92602539 C10.04094332 1627.62939685 8.88747453 1630.29143105 7.73193359 1632.95776367 C5.10743241 1639.22919441 3.13071896 1645.62334872 1.23193359 1652.14526367 C0.73331996 1653.81234562 0.23341751 1655.4790429 -0.26806641 1657.14526367 C-0.50525391 1657.94448242 -0.74244141 1658.74370117 -0.98681641 1659.56713867 C-1.55340423 1661.4368785 -2.13927785 1663.30080898 -2.73681641 1665.16088867 C-5.26031019 1673.07548281 -7.15150054 1681.00025872 -8.76806641 1689.14526367 C-8.92311646 1689.85577377 -9.0781665 1690.56628387 -9.23791504 1691.29832458 C-10.56869343 1697.54507087 -11.34600021 1703.70915365 -11.82275391 1710.07495117 C-11.90540497 1711.1687912 -11.98805603 1712.26263123 -12.07321167 1713.38961792 C-13.26502493 1730.69937025 -13.47149103 1748.06376717 -13.83251953 1765.40618896 C-13.93473235 1770.2412058 -14.04515349 1775.07603538 -14.15478516 1779.91088867 C-14.36702827 1789.32218546 -14.57050924 1798.73364791 -14.76806641 1808.14526367 C-48.65012473 1808.52714478 -48.65012473 1808.52714478 -65.51806641 1806.27026367 C-67.04109555 1806.08150376 -68.56437779 1805.89477624 -70.08789062 1805.70996094 C-73.02028227 1805.35332506 -75.95157222 1804.98923089 -78.88232422 1804.61938477 C-83.87841743 1804.00978355 -88.88072995 1803.53411629 -93.89306641 1803.08276367 C-100.7430792 1802.43895465 -107.48524775 1801.44334379 -114.26025391 1800.25048828 C-119.1265453 1799.3968381 -123.98566401 1798.71309706 -128.89306641 1798.14526367 C-134.84593427 1797.43421035 -140.69670426 1796.46764974 -146.57958984 1795.31665039 C-151.58511979 1794.34422317 -156.60178068 1793.53343317 -161.64306641 1792.77026367 C-173.74979044 1790.90990123 -185.75766075 1788.54125179 -197.76806641 1786.14526367 C-198.79125977 1785.94143066 -199.81445312 1785.73759766 -200.86865234 1785.52758789 C-215.32757792 1782.62784545 -229.66435064 1779.31867948 -243.98828125 1775.81665039 C-246.44906368 1775.2223107 -248.91266557 1774.6471127 -251.38134766 1774.08666992 C-260.10934975 1772.1044122 -268.70094713 1769.79445785 -277.29516602 1767.29248047 C-282.03727363 1765.91375088 -286.77696811 1764.61014205 -291.58056641 1763.45776367 C-295.49907572 1762.5128749 -299.16801207 1761.32049195 -302.90869141 1759.82885742 C-305.48019696 1758.88345097 -308.10388973 1758.30093008 -310.76806641 1757.67651367 C-313.44018381 1756.96673249 -315.96287639 1755.97596671 -318.51806641 1754.92651367 C-320.97291088 1754.03405369 -320.97291088 1754.03405369 -324.41259766 1753.25854492 C-329.20554392 1752.08939849 -333.81109686 1750.48609995 -338.45556641 1748.83276367 C-339.3347876 1748.52226074 -340.21400879 1748.21175781 -341.11987305 1747.8918457 C-348.05101705 1745.43091161 -354.92205787 1742.83381319 -361.76806641 1740.14526367 C-363.93412348 1739.31034713 -366.10080111 1738.47703891 -368.26806641 1737.64526367 C-369.33798828 1737.23276367 -370.40791016 1736.82026367 -371.51025391 1736.39526367 C-373.70029983 1735.55495828 -375.89307365 1734.72173153 -378.08837891 1733.89526367 C-384.22452986 1731.57426095 -390.21895432 1729.08914077 -396.16650391 1726.32104492 C-398.61282422 1725.21542568 -401.07396756 1724.22962968 -403.58056641 1723.27026367 C-408.28284146 1721.42347111 -412.75486425 1719.20803303 -417.25488281 1716.91650391 C-421.44562318 1714.78750917 -425.67921762 1712.78661269 -429.95556641 1710.83276367 C-441.51072064 1705.52135555 -452.76298248 1699.5140042 -463.76806641 1693.14526367 C-464.40921387 1692.77570557 -465.05036133 1692.40614746 -465.7109375 1692.02539062 C-474.94823786 1686.68953811 -483.96301938 1681.17323309 -492.76806641 1675.14526367 C-496.01197102 1672.97229195 -499.26658004 1670.81642129 -502.52978516 1668.67260742 C-503.83840407 1667.80936432 -505.14699752 1666.94608261 -506.45556641 1666.08276367 C-507.11878906 1665.64899414 -507.78201172 1665.21522461 -508.46533203 1664.76831055 C-509.10535156 1664.34485352 -509.74537109 1663.92139648 -510.40478516 1663.48510742 C-510.9793042 1663.10733154 -511.55382324 1662.72955566 -512.14575195 1662.34033203 C-513.864214 1661.07443711 -515.27989383 1659.67164023 -516.76806641 1658.14526367 C-517.48994141 1657.56776367 -518.21181641 1656.99026367 -518.95556641 1656.39526367 C-522.66638028 1653.42661257 -526.2196202 1650.30532273 -529.76806641 1647.14526367 C-530.67943359 1646.33959961 -531.59080078 1645.53393555 -532.52978516 1644.70385742 C-553.05290461 1626.36665246 -553.05290461 1626.36665246 -559.76806641 1615.14526367 C-559.76806641 1614.48526367 -559.76806641 1613.82526367 -559.76806641 1613.14526367 C-560.42806641 1613.14526367 -561.08806641 1613.14526367 -561.76806641 1613.14526367 C-563.38916016 1611.16870117 -563.38916016 1611.16870117 -565.20556641 1608.52026367 C-565.80240234 1607.66174805 -566.39923828 1606.80323242 -567.01416016 1605.91870117 C-568.8192882 1603.06426707 -570.30167723 1600.18708121 -571.76806641 1597.14526367 C-572.40054856 1595.86450831 -573.03476265 1594.58460725 -573.67041016 1593.30541992 C-574.00363281 1592.63446289 -574.33685547 1591.96350586 -574.68017578 1591.2722168 C-575.01855469 1590.59094727 -575.35693359 1589.90967773 -575.70556641 1589.20776367 C-576.04007813 1588.53036133 -576.37458984 1587.85295898 -576.71923828 1587.1550293 C-578.36901152 1583.83958905 -580.06579687 1580.57784001 -581.92041016 1577.37182617 C-583.84152842 1574.01697695 -585.28753231 1570.71200491 -586.76806641 1567.14526367 C-587.12127886 1566.53732709 -587.47449132 1565.9293905 -587.83840718 1565.3030316 C-589.03586717 1562.5236898 -589.01787103 1560.33385337 -589.01761407 1557.30847687 C-589.02236488 1556.10530322 -589.02711569 1554.90212957 -589.03201047 1553.66249612 C-589.02716738 1552.3226293 -589.02214225 1550.98276314 -589.01695538 1549.64289761 C-589.01873768 1548.21650462 -589.02139712 1546.7901125 -589.02485624 1545.36372259 C-589.03185094 1541.41903668 -589.02629291 1537.47445058 -589.01880015 1533.52976921 C-589.01284381 1529.24054176 -589.01845673 1524.95132729 -589.02262098 1520.6620999 C-589.02832325 1513.12491461 -589.02653679 1505.58775938 -589.01993561 1498.05057526 C-589.01012956 1486.82056903 -589.01175028 1475.59058488 -589.0156859 1464.36057611 C-589.02199368 1445.36414288 -589.01874155 1426.36772204 -589.01009178 1407.37129021 C-589.00140637 1388.2807701 -588.99657312 1369.19025552 -588.99675941 1350.09973335 C-588.99676706 1348.9020127 -588.99677471 1347.70429204 -588.99678258 1346.47027682 C-588.99682353 1341.60136277 -588.99688919 1336.73244871 -588.9969884 1331.86353466 C-588.99789903 1285.90127982 -588.98792237 1239.93903313 -588.97255873 1193.97678114 C-588.95970646 1155.39409151 -588.95274808 1116.81140733 -588.9533153 1078.22871551 C-588.95340501 1071.97292727 -588.95344615 1065.71713904 -588.95349395 1059.4613508 C-588.95350402 1058.22402059 -588.95351408 1056.98669039 -588.95352445 1055.71186533 C-588.95355474 1051.96543369 -588.95358319 1048.21900206 -588.95361137 1044.47257042 C-588.95362153 1043.23757222 -588.95363169 1042.00257403 -588.95364216 1040.73015164 C-588.95436556 943.37761195 -588.91901678 846.02514872 -588.83799174 748.67264151 C-588.82973515 738.7400614 -588.82159975 728.80748118 -588.81352073 718.87490091 C-588.81149775 716.39057492 -588.80946683 713.90624893 -588.80742794 711.42192295 C-588.77413634 670.77573754 -588.7607871 630.12957354 -588.75648804 589.48337562 C-588.75186262 547.06135609 -588.72741131 504.63939338 -588.67715215 462.21740216 C-588.67011807 456.27926381 -588.66328951 450.34112525 -588.65657997 444.40298653 C-588.65525365 443.23679948 -588.65392734 442.07061244 -588.65256083 440.8690864 C-588.63197722 422.29625843 -588.63146863 403.7234848 -588.63893925 385.15064923 C-588.64589111 366.7669673 -588.63127666 348.38340565 -588.59397329 329.99975921 C-588.5725937 319.14517382 -588.56782655 308.2908794 -588.58697157 297.43628819 C-588.59808489 290.20664553 -588.587543 282.97724574 -588.55924811 275.74765039 C-588.5437716 271.63609228 -588.5377146 267.5251225 -588.55815091 263.41357266 C-588.57654858 259.67571316 -588.56720212 255.93897166 -588.53606738 252.2012059 C-588.52670873 250.23226687 -588.54660644 248.26325424 -588.56785325 246.29440761 C-588.45741468 237.74476946 -586.38957783 232.27278241 -581.76806641 225.14526367 C-580.9229465 223.63094837 -580.08751614 222.11112247 -579.26806641 220.58276367 C-575.37235269 213.59302652 -571.24259164 206.77990453 -566.76806641 200.14526367 C-566.23181641 199.19651367 -565.69556641 198.24776367 -565.14306641 197.27026367 C-564.68931641 196.56901367 -564.23556641 195.86776367 -563.76806641 195.14526367 C-563.10806641 195.14526367 -562.44806641 195.14526367 -561.76806641 195.14526367 C-561.53087891 194.60385742 -561.29369141 194.06245117 -561.04931641 193.50463867 C-559.42458884 190.5127623 -557.41787871 188.03366968 -555.26806641 185.39526367 C-554.47400391 184.41041992 -553.67994141 183.42557617 -552.86181641 182.41088867 C-552.17087891 181.66323242 -551.47994141 180.91557617 -550.76806641 180.14526367 C-550.10806641 180.14526367 -549.44806641 180.14526367 -548.76806641 180.14526367 C-548.58244141 179.44401367 -548.39681641 178.74276367 -548.20556641 178.02026367 C-546.49369093 174.59651271 -544.4577761 172.9394012 -541.51416016 170.57104492 C-539.60223409 169.06501763 -539.60223409 169.06501763 -537.45556641 166.77026367 C-535.76806641 165.14526367 -535.76806641 165.14526367 -533.76806641 165.14526367 C-533.56955078 164.6012793 -533.37103516 164.05729492 -533.16650391 163.49682617 C-531.18185337 160.15950879 -528.3525809 157.95827782 -525.39306641 155.52026367 C-524.81556641 155.03041992 -524.23806641 154.54057617 -523.64306641 154.03588867 C-520.77451371 151.63887889 -518.11950234 149.81332996 -514.76806641 148.14526367 C-514.10806641 147.15526367 -513.44806641 146.16526367 -512.76806641 145.14526367 C-511.1287546 144.10102491 -509.45665562 143.10778341 -507.76806641 142.14526367 C-504.63777557 140.04366918 -501.52408576 137.91911169 -498.41259766 135.78979492 C-495.76806641 134.14526367 -495.76806641 134.14526367 -493.76806641 134.14526367 C-493.76806641 133.48526367 -493.76806641 132.82526367 -493.76806641 132.14526367 C-492.17822266 130.98901367 -492.17822266 130.98901367 -489.83056641 129.64526367 C-488.92951172 129.12319336 -488.02845703 128.60112305 -487.10009766 128.06323242 C-486.00052734 127.43030273 -484.90095703 126.79737305 -483.76806641 126.14526367 C-482.35419501 125.3099016 -480.94150863 124.47253178 -479.52978516 123.63354492 C-478.025943 122.74150977 -476.52203654 121.84958302 -475.01806641 120.95776367 C-474.29756104 120.52979492 -473.57705566 120.10182617 -472.8347168 119.66088867 C-461.78343043 113.14526367 -461.78343043 113.14526367 -458.76806641 113.14526367 C-458.76806641 112.48526367 -458.76806641 111.82526367 -458.76806641 111.14526367 C-457.58212891 110.58838867 -456.39619141 110.03151367 -455.17431641 109.45776367 C-446.49228849 105.36934404 -437.85213238 101.21973048 -429.28564453 96.89428711 C-424.62485063 94.54969485 -419.91304029 92.3510717 -415.14697266 90.22729492 C-412.96536479 89.23500366 -410.83595001 88.17972064 -408.70556641 87.08276367 C-405.04053624 85.22422911 -401.28517066 83.70299831 -397.45947266 82.20776367 C-394.60668432 81.08155405 -391.78166903 79.89926939 -388.95556641 78.70776367 C-382.6081455 76.0555929 -376.20179831 73.57945465 -369.76806641 71.14526367 C-369.11193359 70.89599121 -368.45580078 70.64671875 -367.77978516 70.38989258 C-360.15536034 67.49483673 -352.53006768 64.65318008 -344.76806641 62.14526367 C-342.18378538 61.29384268 -339.60052919 60.43965344 -337.01806641 59.58276367 C-335.76509766 59.16897461 -334.51212891 58.75518555 -333.22119141 58.32885742 C-331.23259394 57.64724539 -329.25394043 56.92995295 -327.31494141 56.11791992 C-324.63972821 55.09625108 -321.94950463 54.43376365 -319.16845703 53.76586914 C-312.93420576 52.1540438 -306.81475516 50.08826323 -300.67431641 48.1550293 C-294.27074659 46.15955067 -287.86403349 44.37562051 -281.34521484 42.79736328 C-278.4306768 42.05989349 -275.61578734 41.10554166 -272.76806641 40.14526367 C-269.25735072 39.34737374 -265.73458133 38.63850791 -262.20556641 37.92651367 C-258.81520274 37.21674507 -258.81520274 37.21674507 -255.79541016 36.14526367 C-252.33631884 35.0026477 -248.9097052 34.31932871 -245.33056641 33.64526367 C-241.54277812 32.93044004 -237.86138015 32.1719968 -234.15478516 31.11010742 C-231.09005456 30.23699501 -228.16642493 29.66436263 -225.01806641 29.20776367 C-221.02500799 28.5778029 -217.21184942 27.77281888 -213.33056641 26.64526367 C-208.28671649 25.19796097 -203.27414571 24.41176841 -198.08447266 23.67651367 C-194.78149183 23.14741427 -191.58029559 22.4349913 -188.33056641 21.64526367 C-182.69417361 20.29198809 -177.08456774 19.43698167 -171.34228516 18.67260742 C-167.75984982 18.14405139 -164.24872888 17.45348925 -160.70556641 16.70776367 C-153.59039464 15.23565917 -146.44946155 14.1923446 -139.25292969 13.20239258 C-134.83778153 12.59260109 -130.45499636 11.94551719 -126.08056641 11.08276367 C-120.76956403 10.06238211 -115.42871434 9.53397254 -110.05352783 8.97920227 C-105.45577115 8.48871614 -100.90844488 7.87302102 -96.3513031 7.09310913 C-85.50192311 5.24196621 -74.63425326 4.16882972 -63.67016602 3.26489258 C-60.7040795 3.02014098 -57.73900483 2.76518766 -54.77392578 2.50854492 C-52.82280435 2.3425862 -50.87163392 2.17720239 -48.92041016 2.01245117 C-48.06672348 1.9395285 -47.2130368 1.86660583 -46.33348083 1.79147339 C-30.87948325 0.52521156 -15.50041483 -0.00495384 0 0 Z M38.79443359 99.89526367 C37.95812912 99.91588867 37.12182465 99.93651367 36.26017761 99.95776367 C9.62373864 100.61851649 -16.79710665 101.9825082 -43.31298828 104.70336914 C-49.45551591 105.3263219 -55.61047298 105.76393808 -61.76806641 106.20776367 C-71.36313094 106.93652334 -80.86963508 108.11554322 -90.40087891 109.42651367 C-95.28584613 110.09525785 -100.17669294 110.63744703 -105.08056641 111.14526367 C-111.84414945 111.85817372 -118.52204068 112.87330186 -125.22143555 114.03979492 C-129.97852701 114.86466989 -134.72651902 115.55065593 -139.51806641 116.14526367 C-145.48095809 116.91119774 -151.27597546 118.05116001 -157.13916016 119.36791992 C-160.97934488 120.19052139 -164.83409841 120.86734927 -168.70556641 121.52026367 C-197.7238931 126.49760366 -226.26836874 134.1444117 -254.30712891 143.05541992 C-257.30539915 143.99957048 -260.31158959 144.89539501 -263.33056641 145.77026367 C-267.28745556 146.94414079 -270.98301772 148.49360606 -274.76806641 150.14526367 C-276.13838381 150.61741264 -277.51387043 151.07471579 -278.89306641 151.52026367 C-284.94258075 153.48867464 -290.84724904 155.8230917 -296.76806641 158.14526367 C-297.67169922 158.4984668 -298.57533203 158.85166992 -299.50634766 159.21557617 C-309.65504278 163.2245475 -319.21654469 167.85320434 -328.76806641 173.14526367 C-329.35845703 173.47075195 -329.94884766 173.79624023 -330.55712891 174.1315918 C-337.47768822 177.95887081 -344.18532451 181.93324575 -350.58447266 186.60229492 C-352.76806641 188.14526367 -352.76806641 188.14526367 -355.54541016 189.71948242 C-356.27888672 190.18999023 -357.01236328 190.66049805 -357.76806641 191.14526367 C-357.76806641 191.80526367 -357.76806641 192.46526367 -357.76806641 193.14526367 C-358.59951172 193.5068457 -358.59951172 193.5068457 -359.44775391 193.87573242 C-373.17997448 201.38915277 -383.97123361 217.47797152 -389.08056641 231.83276367 C-392.48281664 247.99345229 -388.06828344 261.73194501 -379.44384766 275.21557617 C-375.58570368 280.83848632 -370.81864316 285.19761504 -365.61181641 289.52026367 C-363.76806641 291.14526367 -363.76806641 291.14526367 -361.46728516 293.52416992 C-358.51698489 296.389078 -355.43913615 298.72770281 -352.08056641 301.08276367 C-351.16452637 301.73027588 -351.16452637 301.73027588 -350.22998047 302.39086914 C-342.08942239 308.9516717 -342.08942239 308.9516717 -332.76806641 312.14526367 C-332.76806641 312.80526367 -332.76806641 313.46526367 -332.76806641 314.14526367 C-332.23439453 314.39695312 -331.70072266 314.64864258 -331.15087891 314.90795898 C-328.68949524 316.06945102 -326.22877842 317.2323494 -323.76806641 318.39526367 C-322.92888672 318.79100586 -322.08970703 319.18674805 -321.22509766 319.59448242 C-317.27942024 321.46026786 -313.34917331 323.34471939 -309.45556641 325.31713867 C-306.60787097 326.75099335 -303.75274253 328.01592676 -300.76806641 329.14526367 C-297.66292576 330.35229243 -294.71062339 331.64749656 -291.76806641 333.20776367 C-287.28706138 335.51588699 -282.59960727 336.77343772 -277.76806641 338.14526367 C-273.09737754 339.59836687 -268.53951321 341.2158437 -264.01806641 343.08276367 C-258.04942367 345.49755806 -251.94313789 347.34031117 -245.76806641 349.14526367 C-244.98963379 349.37503906 -244.21120117 349.60481445 -243.40917969 349.84155273 C-233.1358115 352.86696007 -222.85718327 355.7092413 -212.41259766 358.07885742 C-208.83852513 358.89010131 -205.27719177 359.74661411 -201.71728516 360.61791992 C-200.10418457 361.01140625 -200.10418457 361.01140625 -198.45849609 361.4128418 C-196.37118624 361.92291992 -194.28453456 362.43570335 -192.19873047 362.9519043 C-184.49929396 364.82345191 -176.7509371 366.33490927 -168.95645142 367.74777222 C-166.70168777 368.15732048 -164.44805198 368.5726638 -162.19458008 368.98925781 C-144.11799702 372.32559451 -126.07053433 375.61690805 -107.82226562 377.87768555 C-104.93855143 378.25331554 -102.07395677 378.73030147 -99.20556641 379.20776367 C-92.90872821 380.20285986 -86.58892157 380.75810591 -80.24243164 381.32519531 C-73.55843437 381.93614571 -66.92037434 382.75851014 -60.26806641 383.64526367 C-47.66433634 385.29252852 -35.03834456 386.11376403 -22.35693359 386.90698242 C-18.94137904 387.13375666 -15.53115192 387.39603099 -12.11962891 387.67651367 C14.12621359 389.83093519 40.34922241 390.23065617 66.66943359 390.27026367 C68.10115402 390.27428192 68.10115402 390.27428192 69.5617981 390.27838135 C104.4029795 390.35255376 139.23994037 389.15024528 174.04101562 387.58056641 C177.76208853 387.41318674 181.48336836 387.25363123 185.20507812 387.10107422 C208.45760492 386.14589753 231.49652041 384.57249359 254.60714626 381.80422211 C260.20363094 381.13597795 265.80624379 380.58737463 271.41943359 380.08276367 C278.2462753 379.42716321 284.9683778 378.44064507 291.72216797 377.25048828 C296.60979066 376.39233536 301.49007374 375.71230507 306.41943359 375.14526367 C312.79506303 374.38446371 319.00533752 373.24049677 325.28662109 371.92260742 C329.55870459 371.05117133 333.85824756 370.41415378 338.16943359 369.77026367 C349.62049037 368.03169535 360.91550503 365.59493307 372.23193359 363.14526367 C373.95719206 362.77676494 375.68245236 362.40827484 377.40771484 362.03979492 C384.36651663 360.5382667 391.23870925 358.94923128 398.02880859 356.78979492 C400.3349924 356.11511349 402.61987835 355.64588682 404.98193359 355.20776367 C418.18660864 352.68094314 431.02280702 348.05504859 443.79589844 343.9309082 C445.78992716 343.28781495 447.78603321 342.651166 449.78271484 342.01635742 C462.02647297 338.05660344 473.81973858 332.96227045 485.57568359 327.75854492 C487.99961243 326.68901222 490.43063221 325.63539831 492.86865234 324.59838867 C506.90339664 318.53459671 521.14525061 311.0878881 533.60302734 302.20385742 C535.23193359 301.14526367 535.23193359 301.14526367 538.23193359 300.14526367 C539.59018241 298.83732036 540.91649496 297.4962547 542.23193359 296.14526367 C543.47733665 295.07737909 544.72788577 294.01548307 545.98193359 292.95776367 C552.32522887 287.44288382 557.77365177 281.27851459 562.23193359 274.14526367 C562.70373047 273.51491211 563.17552734 272.88456055 563.66162109 272.23510742 C570.13267498 263.36557834 573.63854359 252.17065016 573.23193359 241.14526367 C569.86565994 219.70596342 555.71638173 203.18217374 538.86865234 190.34448242 C536.35639939 188.55588989 533.80687148 186.84238182 531.23193359 185.14526367 C529.62318359 184.06245117 529.62318359 184.06245117 527.98193359 182.95776367 C521.15067229 178.41421202 514.22519579 174.44636844 506.82177734 170.87963867 C504.41085598 169.71484097 502.03940287 168.53315573 499.67333984 167.28588867 C480.25672247 157.12626928 459.21817282 149.08774951 438.11083984 143.23901367 C434.4192462 142.21158609 430.75561079 141.0998476 427.09033203 139.98266602 C403.78356086 132.88871783 380.14884977 127.3730745 356.23828125 122.73266602 C353.37389998 122.17300211 350.51151479 121.60381998 347.6494751 121.03231812 C328.81461937 117.2334614 328.81461937 117.2334614 309.79443359 114.56713867 C305.80267285 114.09443016 301.87544212 113.41130909 297.91943359 112.70776367 C287.85699155 110.94719891 277.7217835 109.91270912 267.56787109 108.83276367 C262.77613974 108.32231878 258.00622316 107.73426587 253.23193359 107.08276367 C245.40798928 106.08431053 237.56436298 105.52372282 229.69692993 104.98126221 C223.21225543 104.52991712 216.73833929 104.02610182 210.265625 103.42700195 C188.93679383 101.47081646 167.68782402 100.47579027 146.2779541 100.012146 C143.03660555 99.939337 139.7955706 99.85579404 136.55448627 99.77215385 C103.94999854 98.93372292 71.39707358 99.07638416 38.79443359 99.89526367 Z M-272.76806641 785.14526367 C-273.50508789 785.26272949 -274.24210937 785.38019531 -275.00146484 785.5012207 C-288.66401814 787.68101033 -301.31002892 792.19630934 -313.76806641 798.14526367 C-315.49475078 798.92164146 -317.22376714 799.69286322 -318.95556641 800.45776367 C-320.05964844 800.94696289 -320.05964844 800.94696289 -321.18603516 801.44604492 C-321.70810547 801.67678711 -322.23017578 801.9075293 -322.76806641 802.14526367 C-322.76806641 802.80526367 -322.76806641 803.46526367 -322.76806641 804.14526367 C-323.46931641 804.39276367 -324.17056641 804.64026367 -324.89306641 804.89526367 C-333.98343701 808.84759872 -342.05279127 815.81416454 -348.26025391 823.44604492 C-349.76806641 825.14526367 -349.76806641 825.14526367 -352.76806641 827.14526367 C-353.80762604 828.7875467 -354.80374565 830.45770234 -355.76806641 832.14526367 C-356.92333182 833.77838887 -358.09023945 835.40333456 -359.26806641 837.02026367 C-362.02740434 840.94812627 -364.10011849 844.61797648 -365.76806641 849.14526367 C-366.08388672 849.97799805 -366.39970703 850.81073242 -366.72509766 851.66870117 C-367.77713907 854.48202539 -368.7767319 857.31004699 -369.76806641 860.14526367 C-370.18958984 861.26481445 -370.18958984 861.26481445 -370.61962891 862.40698242 C-374.75451417 874.37308978 -375.4599313 888.58641182 -374.76806641 901.14526367 C-374.73229492 901.85730957 -374.69652344 902.56935547 -374.65966797 903.30297852 C-373.41189878 925.54879052 -366.67588399 947.55116182 -349.72900391 963.00463867 C-348.36436372 964.20552203 -346.98912432 965.39454812 -345.60009766 966.56713867 C-343.76806641 968.14526367 -343.76806641 968.14526367 -342.27197266 969.66479492 C-340.58627358 971.32422336 -338.79997098 972.68411965 -336.89306641 974.08276367 C-334.61002643 975.76697349 -332.39071289 977.45819098 -330.20556641 979.27026367 C-327.82639664 981.10039426 -325.37849694 982.58037889 -322.75244141 984.02807617 C-320.5708222 985.25631061 -318.45757883 986.57480294 -316.33056641 987.89526367 C-310.015548 991.69960708 -303.41397821 994.89776001 -296.80078125 998.14282227 C-294.23015607 999.41053629 -291.67237443 1000.70289295 -289.11425781 1001.99560547 C-281.42501039 1005.87390779 -273.6650608 1009.36607122 -265.70556641 1012.64526367 C-259.40020191 1015.26983163 -253.42348639 1017.8524926 -247.89306641 1021.89526367 C-245.13934337 1024.34003191 -245.13934337 1024.34003191 -242.76806641 1024.14526367 C-242.76806641 1024.80526367 -242.76806641 1025.46526367 -242.76806641 1026.14526367 C-241.124385 1027.83460289 -239.45377881 1029.49786292 -237.76806641 1031.14526367 C-232.73919758 1036.6051784 -231.25619846 1042.50747517 -231.45556641 1049.80932617 C-232.21576572 1055.49181607 -234.47621858 1059.82337287 -238.45556641 1063.89526367 C-239.53680718 1064.67795289 -240.64330122 1065.42652359 -241.76806641 1066.14526367 C-242.40486328 1066.56420898 -243.04166016 1066.9831543 -243.69775391 1067.41479492 C-259.68297123 1077.10546696 -275.75411657 1076.57347797 -293.25952148 1072.41699219 C-307.46007223 1068.83218459 -321.39760429 1064.13175589 -334.76806641 1058.14526367 C-335.42476318 1057.85635254 -336.08145996 1057.56744141 -336.75805664 1057.26977539 C-342.32475075 1054.81550445 -347.83602208 1052.25662051 -353.33056641 1049.64526367 C-354.52842773 1049.0787207 -354.52842773 1049.0787207 -355.75048828 1048.50073242 C-360.79122773 1046.10977043 -365.7750654 1043.64176418 -370.76806641 1041.14526367 C-370.76806641 1072.16526367 -370.76806641 1103.18526367 -370.76806641 1135.14526367 C-360.65838143 1138.11870043 -350.55209767 1141.08643748 -340.41577148 1143.96435547 C-336.47291511 1145.0847595 -332.53228349 1146.20902287 -328.60400391 1147.37963867 C-327.40001953 1147.73541992 -326.19603516 1148.09120117 -324.95556641 1148.45776367 C-323.93849609 1148.76327148 -322.92142578 1149.0687793 -321.87353516 1149.38354492 C-314.16912643 1151.27330555 -306.53277075 1151.30459615 -298.64306641 1151.31323242 C-297.47502975 1151.31742188 -296.3069931 1151.32161133 -295.1035614 1151.32592773 C-291.3250287 1151.33569256 -287.54660962 1151.33572007 -283.76806641 1151.33276367 C-282.48340485 1151.33249176 -281.19874329 1151.33221985 -279.87515259 1151.3319397 C-260.4415103 1151.31295397 -241.11806662 1151.09891356 -221.76806641 1149.14526367 C-220.79853027 1149.04874512 -219.82899414 1148.95222656 -218.83007812 1148.8527832 C-203.5117821 1147.21700514 -188.54209424 1143.17169082 -174.76806641 1136.14526367 C-174.04876953 1135.77916992 -173.32947266 1135.41307617 -172.58837891 1135.03588867 C-151.08408823 1123.57685489 -132.9976234 1106.74056558 -121.76806641 1085.14526367 C-121.22859375 1084.19586914 -121.22859375 1084.19586914 -120.67822266 1083.22729492 C-118.22550819 1078.76512765 -116.63439599 1074.04332596 -115.08056641 1069.20776367 C-114.86585693 1068.55138916 -114.65114746 1067.89501465 -114.42993164 1067.21875 C-106.59645945 1041.89062758 -112.29651365 1013.11945432 -124.11962891 990.16870117 C-127.07771302 984.40506454 -127.07771302 984.40506454 -131.76806641 980.14526367 C-132.09806641 979.15526367 -132.42806641 978.16526367 -132.76806641 977.14526367 C-134.38126645 975.42679308 -136.05761003 973.76695863 -137.76806641 972.14526367 C-139.13125 970.8381543 -139.13125 970.8381543 -140.52197266 969.50463867 C-141.44880859 968.64354492 -142.37564453 967.78245117 -143.33056641 966.89526367 C-144.7246875 965.5881543 -144.7246875 965.5881543 -146.14697266 964.25463867 C-148.63618654 962.2513965 -149.79366036 961.81973216 -152.76806641 961.14526367 C-153.09806641 960.15526367 -153.42806641 959.16526367 -153.76806641 958.14526367 C-155.88837285 956.5970566 -157.97438152 955.20161009 -160.20556641 953.83276367 C-160.84010742 953.43541016 -161.47464844 953.03805664 -162.12841797 952.62866211 C-164.00305106 951.45879255 -165.88479248 950.30115455 -167.76806641 949.14526367 C-168.69232422 948.56905273 -169.61658203 947.9928418 -170.56884766 947.39916992 C-176.15037852 943.97191413 -181.8832104 941.01183532 -187.76806641 938.14526367 C-196.28951197 933.94488437 -204.75067823 929.65873858 -213.11352539 925.15039062 C-217.70587718 922.68492117 -222.34750402 920.33372497 -227.01806641 918.02026367 C-232.55708987 915.27438884 -238.03861836 912.45657795 -243.43603516 909.43823242 C-244.87961201 908.63785732 -246.33857061 907.86381493 -247.81884766 907.13354492 C-254.22298035 903.88348186 -257.48045752 898.79830962 -259.76806641 892.14526367 C-260.95040339 884.74428888 -259.64872592 879.47887448 -255.47509766 873.30151367 C-253.10220698 870.30417808 -250.92411516 868.33517505 -247.76806641 866.14526367 C-246.79869141 865.44401367 -245.82931641 864.74276367 -244.83056641 864.02026367 C-224.11258966 852.89226743 -193.38643526 859.65767446 -172.39306641 865.95776367 C-164.13735407 868.53497447 -156.03799624 871.55188979 -147.94775391 874.60229492 C-143.28359102 876.34847883 -138.562113 877.80210407 -133.76806641 879.14526367 C-132.77806641 879.47526367 -131.78806641 879.80526367 -130.76806641 880.14526367 C-130.71428511 869.11789433 -130.8639388 858.10958731 -131.17041016 847.08666992 C-131.21290651 845.52009722 -131.25535032 843.95352309 -131.29774475 842.38694763 C-131.38611017 839.14414929 -131.47630334 835.90140772 -131.56762695 832.65869141 C-131.68453426 828.49596726 -131.79483364 824.33309462 -131.90363216 820.17015171 C-131.98871308 816.95402168 -132.07814068 813.73802351 -132.16882515 810.52204704 C-132.21145883 808.9850281 -132.25250537 807.44796429 -132.2919445 805.91086006 C-132.34704391 803.78123619 -132.40819934 801.65187121 -132.47094727 799.52246094 C-132.50425644 798.31163345 -132.53756561 797.10080597 -132.57188416 795.85328674 C-132.46511723 793.23015746 -132.46511723 793.23015746 -133.76806641 792.14526367 C-135.96806474 791.62917827 -138.17858317 791.15765342 -140.39306641 790.70776367 C-143.9460701 789.98428424 -147.41106804 789.2566292 -150.87353516 788.17651367 C-156.59373285 786.49716752 -162.56556441 785.8993533 -168.45556641 785.08276367 C-169.65890625 784.90938477 -170.86224609 784.73600586 -172.10205078 784.55737305 C-183.53956412 782.94462805 -194.84909125 781.9931561 -206.40087891 781.94213867 C-208.00258186 781.93175316 -208.00258186 781.93175316 -209.63664246 781.92115784 C-213.05548834 781.90399753 -216.47417951 781.89757351 -219.89306641 781.89526367 C-221.05736176 781.89392426 -222.2216571 781.89258484 -223.42123413 781.89120483 C-240.06481502 781.89536699 -256.33567005 782.25683624 -272.76806641 785.14526367 Z M28.23193359 794.14526367 C27.37341797 794.47800293 26.51490234 794.81074219 25.63037109 795.15356445 C21.19276357 796.90008941 16.85188185 798.71214743 12.60693359 800.89526367 C11.76904297 801.32323242 10.93115234 801.75120117 10.06787109 802.19213867 C9.46201172 802.50666992 8.85615234 802.82120117 8.23193359 803.14526367 C8.23193359 803.80526367 8.23193359 804.46526367 8.23193359 805.14526367 C7.42755859 805.35151367 6.62318359 805.55776367 5.79443359 805.77026367 C-0.17688977 808.07498497 -5.27834969 811.6037923 -9.76806641 816.14526367 C-10.75806641 816.64026367 -10.75806641 816.64026367 -11.76806641 817.14526367 C-11.76806641 817.80526367 -11.76806641 818.46526367 -11.76806641 819.14526367 C-12.29916016 819.35924805 -12.83025391 819.57323242 -13.37744141 819.79370117 C-16.6783151 821.6598814 -19.27910825 824.1827192 -22.01806641 826.77026367 C-22.5965332 827.31223389 -23.175 827.8542041 -23.77099609 828.41259766 C-25.44238711 829.98425642 -27.10624471 831.56349824 -28.76806641 833.14526367 C-29.53119141 833.86584961 -30.29431641 834.58643555 -31.08056641 835.32885742 C-38.2915235 842.32174122 -44.51325954 850.24897924 -50.44384766 858.34057617 C-51.66666457 860.00707003 -52.93429657 861.64043055 -54.20556641 863.27026367 C-57.43606727 867.78669206 -59.70986725 872.85749438 -62.11962891 877.84057617 C-63.76806641 881.14526367 -63.76806641 881.14526367 -65.33056641 883.71948242 C-75.17394389 900.33018193 -77.86578724 921.33292295 -79.76806641 940.14526367 C-79.86450439 941.06839355 -79.96094238 941.99152344 -80.06030273 942.94262695 C-80.86069038 951.37983882 -80.9673341 959.80239584 -80.95556641 968.27026367 C-80.95529449 969.00904755 -80.95502258 969.74783142 -80.95474243 970.50900269 C-80.90267445 1001.50361376 -78.36456106 1029.45074429 -63.76806641 1057.14526367 C-63.33494141 1057.97928711 -62.90181641 1058.81331055 -62.45556641 1059.67260742 C-58.65957069 1066.75055776 -54.16699909 1073.43275995 -49.76806641 1080.14526367 C-49.07841797 1081.21389648 -48.38876953 1082.2825293 -47.67822266 1083.38354492 C-46.13459322 1085.61533635 -44.72847796 1087.31235856 -42.76806641 1089.14526367 C-41.73976868 1090.32630589 -40.71954638 1091.51440641 -39.70556641 1092.70776367 C-31.99839486 1101.55312511 -23.47256688 1110.4559475 -13.76806641 1117.14526367 C-13.10806641 1117.14526367 -12.44806641 1117.14526367 -11.76806641 1117.14526367 C-11.76806641 1117.80526367 -11.76806641 1118.46526367 -11.76806641 1119.14526367 C-9.76213271 1120.83027163 -9.76213271 1120.83027163 -7.20556641 1122.52026367 C-6.35865234 1123.10549805 -5.51173828 1123.69073242 -4.63916016 1124.29370117 C1.13761123 1128.01912925 7.1391696 1131.16819943 13.29443359 1134.20776367 C13.97570312 1134.54614258 14.65697266 1134.88452148 15.35888672 1135.2331543 C16.69597546 1135.89720317 18.0336868 1136.56000015 19.37207031 1137.22143555 C21.04288905 1138.05136179 22.70627794 1138.89620618 24.36865234 1139.74291992 C38.76352626 1146.79306963 54.62673064 1149.12029945 70.32006836 1151.64135742 C71.28614014 1151.80120117 72.25221191 1151.96104492 73.24755859 1152.12573242 C74.09995117 1152.26003662 74.95234375 1152.39434082 75.83056641 1152.53271484 C79.24270999 1153.40309592 81.83790072 1155.08219637 84.67333984 1157.12182617 C86.19980372 1158.32822541 86.19980372 1158.32822541 88.23193359 1158.14526367 C88.56193359 1159.13526367 88.89193359 1160.12526367 89.23193359 1161.14526367 C90.85964544 1162.53507545 90.85964544 1162.53507545 92.85693359 1163.83276367 C98.41851518 1167.84227598 102.4254749 1172.87561045 106.66943359 1178.20776367 C108.76285039 1180.60753415 110.74887018 1182.48937429 113.16943359 1184.52026367 C116.64229273 1187.47088835 119.22773857 1190.59866984 121.86474609 1194.29760742 C123.74901306 1196.84405964 125.9373113 1198.96831432 128.23193359 1201.14526367 C129.89860026 1202.81193034 131.56526693 1204.47859701 133.23193359 1206.14526367 C133.91513672 1206.81686523 134.59833984 1207.4884668 135.30224609 1208.18041992 C139.44106886 1212.27013801 143.4192061 1216.41499817 147.20458984 1220.83276367 C150.40885769 1224.48772815 153.73540272 1228.02991565 157.05737305 1231.57788086 C161.08125496 1235.90053028 161.08125496 1235.90053028 162.55843067 1238.29977036 C164.10585767 1240.3738296 164.10585767 1240.3738296 166.69380474 1240.63745499 C167.67920144 1240.63376781 168.66459814 1240.63008064 169.67985535 1240.62628174 C170.81147598 1240.6317804 171.94309662 1240.63727905 173.10900879 1240.64294434 C174.35122192 1240.62856323 175.59343506 1240.61418213 176.87329102 1240.59936523 C178.18070755 1240.59994934 179.48812408 1240.60053345 180.8351593 1240.60113525 C184.42186338 1240.60228432 188.00803387 1240.57874465 191.59461379 1240.55083942 C195.34220799 1240.52585742 199.08981402 1240.52348631 202.83747864 1240.51873779 C209.93485673 1240.50629854 217.03198878 1240.47346428 224.12925845 1240.43333983 C232.20894606 1240.38865151 240.28864533 1240.36664252 248.36842573 1240.34655809 C264.98973912 1240.30473231 281.61080497 1240.23436205 298.23193359 1240.14526367 C291.20766796 1233.09329753 283.94009968 1226.49773161 275.94677734 1220.55541992 C274.23193359 1219.14526367 274.23193359 1219.14526367 273.23193359 1217.14526367 C272.59255859 1216.83588867 271.95318359 1216.52651367 271.29443359 1216.20776367 C269.23193359 1215.14526367 269.23193359 1215.14526367 267.23193359 1212.14526367 C266.24193359 1211.81526367 265.25193359 1211.48526367 264.23193359 1211.14526367 C263.73693359 1210.46463867 263.24193359 1209.78401367 262.73193359 1209.08276367 C262.23693359 1208.44338867 261.74193359 1207.80401367 261.23193359 1207.14526367 C260.24193359 1207.14526367 259.25193359 1207.14526367 258.23193359 1207.14526367 C257.99990234 1206.56776367 257.76787109 1205.99026367 257.52880859 1205.39526367 C255.90833747 1202.5838439 254.03930232 1201.1427351 251.48193359 1199.14526367 C246.87932564 1195.48258225 242.37306771 1191.73780117 237.91943359 1187.89526367 C236.2328742 1186.44071273 234.54582735 1184.9868379 232.85449219 1183.5378418 C231.74865659 1182.58874666 230.64759202 1181.63407087 229.55078125 1180.67456055 C226.78873284 1177.99700382 226.78873284 1177.99700382 223.23193359 1177.14526367 C223.23193359 1176.48526367 223.23193359 1175.82526367 223.23193359 1175.14526367 C221.57709751 1173.64648865 219.85602847 1172.22037894 218.10693359 1170.83276367 C217.10017578 1170.02709961 216.09341797 1169.22143555 215.05615234 1168.39135742 C213.65816406 1167.27954102 213.65816406 1167.27954102 212.23193359 1166.14526367 C211.12394804 1165.23321662 210.01874759 1164.31774432 208.91943359 1163.39526367 C208.03255859 1162.65276367 207.14568359 1161.91026367 206.23193359 1161.14526367 C205.69697266 1160.67991211 205.16201172 1160.21456055 204.61083984 1159.73510742 C201.82263666 1157.02094165 201.82263666 1157.02094165 198.23193359 1156.14526367 C198.01408203 1155.5806543 197.79623047 1155.01604492 197.57177734 1154.43432617 C195.79459895 1151.3980972 193.54321725 1149.70322864 190.79443359 1147.52026367 C189.34230469 1146.35624023 189.34230469 1146.35624023 187.86083984 1145.16870117 C186.0331872 1143.76197893 184.1509204 1142.42458821 182.23193359 1141.14526367 C182.48193359 1137.77026367 182.48193359 1137.77026367 183.23193359 1134.14526367 C184.85693359 1133.02026367 184.85693359 1133.02026367 187.23193359 1132.14526367 C188.35289312 1131.37755938 189.45546432 1130.58270817 190.54443359 1129.77026367 C192.80784991 1128.11806526 194.94676862 1126.75280522 197.41943359 1125.39526367 C201.03669366 1123.3875184 204.34754449 1120.97559414 207.66943359 1118.52026367 C208.72001953 1117.74424805 209.77060547 1116.96823242 210.85302734 1116.16870117 C211.63806641 1115.5009668 212.42310547 1114.83323242 213.23193359 1114.14526367 C213.23193359 1113.48526367 213.23193359 1112.82526367 213.23193359 1112.14526367 C213.91255859 1111.98026367 214.59318359 1111.81526367 215.29443359 1111.64526367 C218.92732465 1109.79017037 220.74880456 1107.41951305 223.32177734 1104.30932617 C225.84549261 1101.45014774 228.6760529 1099.08932887 231.63037109 1096.68823242 C233.49427991 1095.13122377 233.49427991 1095.13122377 234.23193359 1092.14526367 C235.87302927 1090.45341246 237.54364027 1088.79001934 239.23193359 1087.14526367 C240.7989568 1085.33355578 242.34093944 1083.49988195 243.85693359 1081.64526367 C244.99001953 1080.26854492 244.99001953 1080.26854492 246.14599609 1078.86401367 C248.06335841 1076.36497965 249.66522734 1073.87281634 251.23193359 1071.14526367 C251.69212891 1070.40147461 252.15232422 1069.65768555 252.62646484 1068.89135742 C268.70316502 1042.71689515 279.152609 1010.01574984 279.23193359 979.14526367 C279.24417969 978.17878906 279.25642578 977.21231445 279.26904297 976.21655273 C279.36609938 968.52367645 279.32940579 960.83787172 279.23193359 953.14526367 C279.23 952.39277344 279.22806641 951.6402832 279.22607422 950.86499023 C279.11266019 928.08011125 272.76944266 898.41663549 260.77099609 878.75073242 C259.23193359 876.14526367 259.23193359 876.14526367 257.79833984 872.78588867 C256.15870911 868.97507609 254.25581248 865.4719132 252.16943359 861.89526367 C251.81816406 861.28424805 251.46689453 860.67323242 251.10498047 860.04370117 C249.5512794 857.35336057 247.95589255 854.7312021 246.23193359 852.14526367 C245.57193359 852.14526367 244.91193359 852.14526367 244.23193359 852.14526367 C243.92642578 851.13399414 243.92642578 851.13399414 243.61474609 850.10229492 C241.73435313 846.08122862 239.04431273 843.12981344 236.10693359 839.83276367 C235.22896118 838.835271 235.22896118 838.835271 234.33325195 837.81762695 C228.40777707 831.13092437 222.35785779 824.57453925 215.23193359 819.14526367 C214.57193359 819.14526367 213.91193359 819.14526367 213.23193359 819.14526367 C213.23193359 818.48526367 213.23193359 817.82526367 213.23193359 817.14526367 C211.26620875 815.71081581 209.29666044 814.42831573 207.23193359 813.14526367 C205.39792929 811.97965205 203.56464895 810.81290088 201.73193359 809.64526367 C200.29527344 808.73647461 200.29527344 808.73647461 198.82958984 807.80932617 C196.91777962 806.58461767 195.0348058 805.31460357 193.16943359 804.02026367 C185.99507822 799.4408879 178.20016421 796.08092758 170.23193359 793.14526367 C169.00474609 792.68120117 167.77755859 792.21713867 166.51318359 791.73901367 C161.80692571 790.01892908 157.04378685 788.54014638 152.23193359 787.14526367 C151.37825195 786.89534668 150.52457031 786.64542969 149.64501953 786.38793945 C111.20207716 775.75463565 65.0948114 779.82965879 28.23193359 794.14526367 Z M337.23193359 787.14526367 C337.23193359 905.94526367 337.23193359 1024.74526367 337.23193359 1147.14526367 C413.46193359 1147.14526367 489.69193359 1147.14526367 568.23193359 1147.14526367 C568.23193359 1119.75526367 568.23193359 1092.36526367 568.23193359 1064.14526367 C525.99193359 1064.14526367 483.75193359 1064.14526367 440.23193359 1064.14526367 C440.23193359 972.73526367 440.23193359 881.32526367 440.23193359 787.14526367 C406.24193359 787.14526367 372.25193359 787.14526367 337.23193359 787.14526367 Z " fill="#00BBF2" transform="translate(588.76806640625,-0.145263671875)"/>
<path d="M0 0 C1.58735176 -0.00322856 3.17470324 -0.0065937 4.76205444 -0.01008606 C8.06810188 -0.01602163 11.3741234 -0.01793181 14.68017578 -0.01733398 C18.02332993 -0.01725286 21.36634666 -0.0241827 24.70947266 -0.0378418 C60.56787397 -0.18212365 60.56787397 -0.18212365 78.0859375 2.16796875 C78.96292801 2.28219177 79.83991852 2.39641479 80.7434845 2.51409912 C92.08864219 4.00326217 103.06063638 6.05933995 114.0859375 9.16796875 C115.00455566 9.42626465 115.92317383 9.68456055 116.86962891 9.95068359 C138.04283498 15.94387625 159.21561792 22.27844706 179.12109375 31.7734375 C181.77712977 33.02271927 184.4588259 34.18335802 187.15991211 35.33081055 C200.64537368 41.19234531 213.7271599 47.83149893 226.2890625 55.47265625 C228.41718369 56.7626068 230.55183098 58.03682004 232.6953125 59.30078125 C239.24434717 63.17334042 245.66496525 67.10470001 251.83984375 71.5625 C253.52134527 72.76440804 255.23399631 73.92294221 256.9609375 75.05859375 C260.25392834 77.28136257 263.39553214 79.6600916 266.5234375 82.10546875 C270.09041789 84.88221485 273.66553471 87.61588215 277.3984375 90.16796875 C278.2853125 90.82796875 279.1721875 91.48796875 280.0859375 92.16796875 C280.0859375 92.82796875 280.0859375 93.48796875 280.0859375 94.16796875 C280.8078125 94.39484375 281.5296875 94.62171875 282.2734375 94.85546875 C285.6566431 96.43429803 287.46284104 98.51441543 290.0859375 101.16796875 C291.49701405 102.35391627 292.90905771 103.53887035 294.33569336 104.70605469 C301.99252694 111.00451055 309.02475212 117.9092578 316.0234375 124.91796875 C316.76723663 125.66068024 316.76723663 125.66068024 317.52606201 126.418396 C324.88385885 133.77741035 331.907954 141.28870929 338.3359375 149.48046875 C340.79434067 152.64072969 340.79434067 152.64072969 343.515625 155.56640625 C345.90921522 158.00763011 347.90266317 160.75773649 349.9609375 163.48046875 C352.48134487 166.80632741 355.00743047 170.10007663 357.71875 173.2734375 C359.81157543 175.83248642 361.43983556 178.31472538 363.0859375 181.16796875 C364.23849843 182.84442101 365.40541142 184.51109004 366.5859375 186.16796875 C368.90880731 189.4281369 371.04479418 192.72520482 373.0859375 196.16796875 C374.22687304 197.96275831 375.37287118 199.75433782 376.5234375 201.54296875 C379.73418534 206.57877326 382.81141573 211.60456439 385.47265625 216.95703125 C387.12994324 220.25555402 388.8821108 223.48913018 390.6484375 226.73046875 C394.07856832 233.10350982 397.27799306 239.57568173 400.3984375 246.10546875 C400.81875244 246.98082275 401.23906738 247.85617676 401.67211914 248.75805664 C404.07308993 253.82301913 406.19199825 258.89240383 408.0859375 264.16796875 C409.86930476 268.95063549 411.68315733 273.71937693 413.5234375 278.48046875 C414.37868592 280.70922061 415.23289707 282.93837086 416.0859375 285.16796875 C416.59833984 286.49634766 416.59833984 286.49634766 417.12109375 287.8515625 C421.10858583 298.45796856 424.63643105 309.47489938 426.59057617 320.65185547 C427.10402659 323.25984957 427.78094014 325.7835609 428.48046875 328.34765625 C430.52199829 336.46995683 431.59944712 344.68279216 432.6484375 352.98046875 C432.75610443 353.82632538 432.86377136 354.67218201 432.97470093 355.54367065 C438.84443264 402.32335649 441.42756052 452.7712411 432.0859375 499.16796875 C432.97152344 499.338125 433.85710937 499.50828125 434.76953125 499.68359375 C441.89802013 501.07813684 449.00502277 502.54795197 456.0859375 504.16796875 C456.77872803 504.32168945 457.47151855 504.47541016 458.18530273 504.63378906 C462.76048459 505.69914417 466.79923822 507.24740456 471.0859375 509.16796875 C472.51548203 509.67037235 473.95220401 510.15334527 475.3984375 510.60546875 C487.07388645 514.43801883 497.60620042 519.64186498 507.75390625 526.58984375 C511.31507562 528.99974731 514.96386553 531.26883267 518.60546875 533.5546875 C523.05066522 536.44581528 523.05066522 536.44581528 525.0859375 538.16796875 C525.0859375 538.82796875 525.0859375 539.48796875 525.0859375 540.16796875 C525.7871875 540.35359375 526.4884375 540.53921875 527.2109375 540.73046875 C530.58916018 542.41958009 532.08446762 544.34480692 534.41796875 547.2421875 C536.17361632 549.2691998 538.03769288 550.93964043 540.0859375 552.66796875 C543.79061372 555.82406791 547.29256626 559.15778806 550.0859375 563.16796875 C550.0859375 563.82796875 550.0859375 564.48796875 550.0859375 565.16796875 C551.0759375 565.49796875 552.0659375 565.82796875 553.0859375 566.16796875 C554.47265625 567.7265625 554.47265625 567.7265625 555.7734375 569.60546875 C556.42892578 570.53166016 556.42892578 570.53166016 557.09765625 571.4765625 C558.0859375 573.16796875 558.0859375 573.16796875 558.0859375 575.16796875 C558.7459375 575.16796875 559.4059375 575.16796875 560.0859375 575.16796875 C561.14075541 576.80049347 562.13213764 578.47443883 563.0859375 580.16796875 C563.57191406 580.87953125 564.05789063 581.59109375 564.55859375 582.32421875 C576.55657633 600.01166235 584.1696806 620.25108221 588.0859375 641.16796875 C588.25367676 641.87260254 588.42141602 642.57723633 588.59423828 643.30322266 C590.73528902 653.09886704 590.56688368 663.06392512 590.5859375 673.04296875 C590.58961334 674.01285736 590.59328918 674.98274597 590.59707642 675.98202515 C590.60870724 695.11591256 589.23500607 714.54217438 581.0859375 732.16796875 C580.5835339 733.59751328 580.10056098 735.03423526 579.6484375 736.48046875 C576.83782759 745.07248867 573.24913217 753.14870033 569.0859375 761.16796875 C568.4259375 761.16796875 567.7659375 761.16796875 567.0859375 761.16796875 C566.8384375 762.05484375 566.5909375 762.94171875 566.3359375 763.85546875 C565.03455327 767.30413697 563.4416863 769.37051705 561.0859375 772.16796875 C560.7353125 772.86921875 560.3846875 773.57046875 560.0234375 774.29296875 C558.99045736 776.35892903 557.74405697 777.58194143 556.0859375 779.16796875 C555.7559375 779.82796875 555.4259375 780.48796875 555.0859375 781.16796875 C554.4259375 781.16796875 553.7659375 781.16796875 553.0859375 781.16796875 C552.84101562 781.72871094 552.59609375 782.28945312 552.34375 782.8671875 C548.59337216 789.72735069 542.13771525 795.38075457 536.19921875 800.3671875 C532.82242241 803.24464242 529.61580394 806.31029168 526.3828125 809.34765625 C524.10561175 811.15237657 522.81529445 811.50374471 520.0859375 812.16796875 C519.7559375 813.15796875 519.4259375 814.14796875 519.0859375 815.16796875 C517.09120184 816.68876722 515.14356915 818.0317796 513.0234375 819.35546875 C512.39928955 819.75056641 511.7751416 820.14566406 511.13208008 820.55273438 C505.35945007 824.13332612 499.36484254 827.15651584 493.2578125 830.1171875 C488.0726767 832.63698589 483.00263953 835.3692996 477.93237305 838.11132812 C475.99371296 839.15106698 474.04201104 840.16147534 472.0859375 841.16796875 C471.03535156 841.72871094 469.98476562 842.28945312 468.90234375 842.8671875 C458.96190135 846.96652567 445.88833956 845.46952602 435.24520874 845.72238159 C433.94325993 845.75383889 433.94325993 845.75383889 432.61500911 845.78593169 C401.48860853 846.50508549 370.34221495 846.31053662 339.20956135 846.29963733 C329.31077208 846.29637809 319.41198632 846.29907292 309.51319722 846.30184078 C290.12092758 846.30707242 270.72866127 846.30666362 251.33639133 846.30376187 C234.35334353 846.30123356 217.37029694 846.30059549 200.38724899 846.30178452 C199.25510745 846.3018609 198.1229659 846.30193729 196.95651704 846.30201599 C192.35911512 846.3023274 187.7617132 846.3026458 183.16431128 846.30297575 C140.12888102 846.30602732 97.09345285 846.30327379 54.05802291 846.29787885 C15.96641519 846.2931399 -22.12518918 846.29355386 -60.21679688 846.29833984 C-103.1527714 846.30371664 -146.08874407 846.30580503 -189.02471888 846.30272758 C-193.61870933 846.30240694 -198.21269977 846.30209409 -202.80669022 846.30178452 C-203.93759097 846.30170544 -205.06849172 846.30162636 -206.23366219 846.30154489 C-223.17822989 846.30041594 -240.12279623 846.30172173 -257.06736374 846.30426407 C-276.38278121 846.30714793 -295.69819489 846.30635719 -315.0136119 846.30098332 C-324.83983192 846.29833834 -334.66604576 846.29717058 -344.4922657 846.30063248 C-379.09150122 846.31200588 -413.68617182 846.30142884 -448.28140259 845.72238159 C-450.05100851 845.69325295 -450.05100851 845.69325295 -451.85636406 845.66353585 C-459.54322035 845.53262042 -467.22867294 845.36702209 -474.9140625 845.16796875 C-476.13196463 845.13686726 -477.34986677 845.10576576 -478.60467502 845.0737218 C-482.37366842 844.97275843 -486.14210947 844.85973795 -489.91063499 844.74269295 C-491.05399312 844.71184941 -492.19735125 844.68100587 -493.37535659 844.64922767 C-508.81098722 844.1305458 -523.3221295 840.37465359 -537.98730469 835.76611328 C-539.8443294 835.18961676 -541.71114042 834.64493861 -543.578125 834.1015625 C-548.99569697 832.51365348 -554.01734099 830.82478196 -558.9921875 828.15234375 C-561.07116005 827.08750415 -563.17010067 826.25248771 -565.3515625 825.41796875 C-576.75555386 820.92655062 -587.66631643 815.65060681 -597.984375 809.02734375 C-600.65622644 807.3316087 -603.37523761 805.75721548 -606.12890625 804.19921875 C-614.41260776 799.41388571 -622.36977037 794.04183685 -629.9140625 788.16796875 C-631.03672721 787.32674435 -632.16053222 786.4870407 -633.28515625 785.6484375 C-634.49496479 784.73851138 -635.70459941 783.82835398 -636.9140625 782.91796875 C-637.50324463 782.48105713 -638.09242676 782.04414551 -638.69946289 781.59399414 C-640.14150515 780.49930357 -641.53292663 779.33856562 -642.9140625 778.16796875 C-642.9140625 777.50796875 -642.9140625 776.84796875 -642.9140625 776.16796875 C-643.49671875 775.89984375 -644.079375 775.63171875 -644.6796875 775.35546875 C-646.94192851 774.15315884 -648.71982568 772.82970962 -650.6640625 771.16796875 C-651.27765625 770.65234375 -651.89125 770.13671875 -652.5234375 769.60546875 C-653.9140625 768.16796875 -653.9140625 768.16796875 -653.9140625 766.16796875 C-654.5534375 765.89984375 -655.1928125 765.63171875 -655.8515625 765.35546875 C-657.9140625 764.16796875 -657.9140625 764.16796875 -658.9140625 761.16796875 C-659.5740625 760.83796875 -660.2340625 760.50796875 -660.9140625 760.16796875 C-662.9140625 759.16796875 -662.9140625 759.16796875 -663.9140625 756.16796875 C-664.5740625 755.83796875 -665.2340625 755.50796875 -665.9140625 755.16796875 C-667.9140625 754.16796875 -667.9140625 754.16796875 -668.9140625 751.16796875 C-669.501875 750.88566406 -670.0896875 750.60335937 -670.6953125 750.3125 C-673.75186041 748.73579483 -675.29018334 746.54304871 -677.4140625 743.85546875 C-678.166875 742.91058594 -678.9196875 741.96570312 -679.6953125 740.9921875 C-680.79359375 739.59419922 -680.79359375 739.59419922 -681.9140625 738.16796875 C-682.666875 737.26691406 -683.4196875 736.36585938 -684.1953125 735.4375 C-685.9140625 733.16796875 -685.9140625 733.16796875 -685.9140625 731.16796875 C-686.9040625 730.83796875 -687.8940625 730.50796875 -688.9140625 730.16796875 C-689.94419527 728.51975631 -690.93471326 726.84685316 -691.9140625 725.16796875 C-693.64010704 722.89945307 -695.41083782 720.67198546 -697.1953125 718.44921875 C-698.96213847 716.10415883 -700.4414058 713.7066236 -701.9140625 711.16796875 C-702.37425781 710.40097656 -702.83445312 709.63398437 -703.30859375 708.84375 C-704.31629247 707.16425214 -705.32121225 705.48308554 -706.32421875 703.80078125 C-707.29095819 702.19984173 -708.27383943 700.60831574 -709.28515625 699.03515625 C-725.30557727 673.7110913 -736.1584467 643.47835906 -741.9140625 614.16796875 C-742.06875 613.47082764 -742.2234375 612.77368652 -742.3828125 612.05541992 C-754.58572158 555.49470345 -747.06192625 492.41423391 -725.9140625 439.16796875 C-725.51574219 438.15863281 -725.11742187 437.14929687 -724.70703125 436.109375 C-722.27164324 430.10642864 -719.59242294 424.22359151 -716.8515625 418.35546875 C-716.5230127 417.6497876 -716.19446289 416.94410645 -715.85595703 416.21704102 C-713.7377761 411.73244656 -711.42791459 407.44395793 -708.9140625 403.16796875 C-708.57334717 402.58571533 -708.23263184 402.00346191 -707.8815918 401.40356445 C-706.86239221 399.67229176 -705.82587024 397.95125423 -704.7890625 396.23046875 C-704.44230469 395.64201172 -704.09554687 395.05355469 -703.73828125 394.44726562 C-702.8522364 392.98580084 -701.88919149 391.57156351 -700.9140625 390.16796875 C-700.2540625 390.16796875 -699.5940625 390.16796875 -698.9140625 390.16796875 C-698.5840625 388.51796875 -698.2540625 386.86796875 -697.9140625 385.16796875 C-697.2540625 385.16796875 -696.5940625 385.16796875 -695.9140625 385.16796875 C-695.65625 384.45125 -695.3984375 383.73453125 -695.1328125 382.99609375 C-693.8436522 380.00458074 -692.29197523 377.5756927 -690.4140625 374.91796875 C-689.805625 374.0465625 -689.1971875 373.17515625 -688.5703125 372.27734375 C-686.9140625 370.16796875 -686.9140625 370.16796875 -684.9140625 369.16796875 C-683.78055716 367.15127048 -683.78055716 367.15127048 -682.9140625 365.16796875 C-682.2540625 365.16796875 -681.5940625 365.16796875 -680.9140625 365.16796875 C-680.68074219 364.61625 -680.44742188 364.06453125 -680.20703125 363.49609375 C-678.57386966 360.55541608 -676.52067043 358.37719624 -674.2265625 355.91796875 C-671.17583652 352.62623707 -668.15210457 349.32223589 -665.2265625 345.91796875 C-659.60613541 339.48903474 -653.59452068 333.97378811 -646.93359375 328.625 C-644.83684534 326.91884897 -642.77783525 325.20086278 -640.73828125 323.4296875 C-634.66360549 318.15991313 -628.55465269 313.37563299 -621.76953125 309.01953125 C-618.95602119 307.19517589 -616.2515239 305.2634564 -613.5390625 303.29296875 C-610.10982073 300.86484434 -607.05720456 299.14923924 -602.9140625 298.16796875 C-602.9140625 297.50796875 -602.9140625 296.84796875 -602.9140625 296.16796875 C-601.37239583 295.39713542 -599.83072917 294.62630208 -598.2890625 293.85546875 C-597.37511719 293.39785156 -596.46117187 292.94023438 -595.51953125 292.46875 C-593.55069217 291.48580635 -591.57721038 290.5121545 -589.6015625 289.54296875 C-586.91790543 288.21439472 -586.91790543 288.21439472 -584.4765625 286.66796875 C-582.00368143 285.22042861 -579.5000693 284.07714976 -576.85546875 282.98046875 C-574.75309144 282.10060058 -572.67870037 281.16829466 -570.6015625 280.23046875 C-566.56678676 278.4288626 -562.48280536 276.78486302 -558.37109375 275.16796875 C-556.07674135 274.23417827 -553.8446115 273.21773208 -551.6015625 272.16796875 C-545.87699885 269.60488015 -539.92881304 267.91192817 -533.9140625 266.16796875 C-532.54798429 265.74932651 -531.18210684 265.33002874 -529.81640625 264.91015625 C-518.31754061 261.45752126 -506.82651654 259.55494401 -494.9140625 258.16796875 C-494.19295288 258.07950684 -493.47184326 257.99104492 -492.72888184 257.89990234 C-485.52814351 257.08699723 -478.37408985 256.99041489 -471.1328125 256.96484375 C-469.81684082 256.95796539 -468.50086914 256.95108704 -467.14501953 256.94400024 C-462.90136464 256.92488628 -458.65775493 256.92034011 -454.4140625 256.91796875 C-453.69574249 256.91708504 -452.97742249 256.91620132 -452.23733521 256.91529083 C-397.57715595 256.85545453 -397.57715595 256.85545453 -378.9140625 262.16796875 C-375.96926082 258.26809626 -373.58970782 254.76333206 -371.765625 250.203125 C-365.91452663 236.21953668 -358.26499317 222.22897387 -350.265625 209.37109375 C-349.15660404 207.56332548 -348.09485256 205.72663913 -347.046875 203.8828125 C-344.84971498 200.01998021 -342.52440672 196.24529624 -340.1640625 192.48046875 C-339.73013184 191.78783936 -339.29620117 191.09520996 -338.84912109 190.3815918 C-333.83677374 182.41340943 -328.80302175 174.52290296 -322.9140625 167.16796875 C-322.5840625 166.50796875 -322.2540625 165.84796875 -321.9140625 165.16796875 C-321.2540625 165.16796875 -320.5940625 165.16796875 -319.9140625 165.16796875 C-319.5428125 164.09482422 -319.5428125 164.09482422 -319.1640625 163 C-317.77542655 159.85387169 -316.06942304 157.52985912 -313.9140625 154.85546875 C-313.2128125 153.97246094 -312.5115625 153.08945313 -311.7890625 152.1796875 C-311.1703125 151.51582031 -310.5515625 150.85195312 -309.9140625 150.16796875 C-309.2540625 150.16796875 -308.5940625 150.16796875 -307.9140625 150.16796875 C-307.57375 149.08515625 -307.57375 149.08515625 -307.2265625 147.98046875 C-305.65001164 144.60214548 -303.60419675 142.73000137 -300.9140625 140.16796875 C-300.2540625 139.34296875 -299.5940625 138.51796875 -298.9140625 137.66796875 C-296.74175146 134.95257995 -294.47182473 132.52380239 -291.9140625 130.16796875 C-291.2540625 130.16796875 -290.5940625 130.16796875 -289.9140625 130.16796875 C-289.70007812 129.62785156 -289.48609375 129.08773438 -289.265625 128.53125 C-287.42771363 125.31756105 -284.91739872 122.91875315 -282.2890625 120.35546875 C-281.75144287 119.82501953 -281.21382324 119.29457031 -280.65991211 118.74804688 C-275.72860511 113.9162952 -270.64343781 109.32607946 -265.2265625 105.04296875 C-262.8450803 103.18551292 -262.8450803 103.18551292 -260.66796875 100.87109375 C-257.77967646 98.03606075 -254.73216072 95.51802785 -251.5390625 93.04296875 C-250.93545898 92.57213867 -250.33185547 92.10130859 -249.70996094 91.61621094 C-242.88412704 86.32206184 -235.92117029 81.21859988 -228.9140625 76.16796875 C-228.01945312 75.51957031 -227.12484375 74.87117188 -226.203125 74.203125 C-219.64348263 69.52221515 -212.82015551 65.31342302 -205.9140625 61.16796875 C-205.1509375 60.70777344 -204.3878125 60.24757813 -203.6015625 59.7734375 C-199.18239289 57.16796875 -199.18239289 57.16796875 -196.9140625 57.16796875 C-196.9140625 56.50796875 -196.9140625 55.84796875 -196.9140625 55.16796875 C-195.44259766 54.4409375 -195.44259766 54.4409375 -193.94140625 53.69921875 C-186.24239243 49.87999264 -178.59268355 45.99676337 -171.05249023 41.87109375 C-167.09233642 39.72366679 -163.06388689 37.91550591 -158.9140625 36.16796875 C-156.51383215 35.05121328 -154.11874171 33.92655486 -151.7265625 32.79296875 C-141.68545364 28.08643078 -131.54032358 23.96233559 -121.06225586 20.33447266 C-117.18894694 18.9900039 -113.38098846 17.57500917 -109.6015625 15.98046875 C-106.22418031 14.59495483 -102.89129043 13.59598758 -99.34375 12.73828125 C-95.31559601 11.75612586 -91.29695806 10.74997268 -87.28515625 9.703125 C-74.48807398 6.47550886 -61.82669973 4.3081985 -48.7265625 2.85546875 C-47.99847382 2.77442902 -47.27038513 2.69338928 -46.52023315 2.6098938 C-31.00808832 0.91158611 -15.59797001 0.0076298 0 0 Z M-64.18359375 58.26953125 C-67.28337727 59.01607597 -70.33082965 59.60704172 -73.4765625 60.10546875 C-91.7134652 63.34195611 -109.62728404 69.90413003 -126.7265625 76.85546875 C-127.6640332 77.23606445 -128.60150391 77.61666016 -129.56738281 78.00878906 C-133.89893923 79.80110278 -137.95113527 81.63860042 -141.9140625 84.16796875 C-143.58316434 84.88797346 -145.25301561 85.60639783 -146.9296875 86.30859375 C-155.4615023 90.00347418 -163.49755283 94.69146039 -171.5703125 99.27734375 C-173.33318618 100.27410877 -175.1027063 101.26229065 -176.9140625 102.16796875 C-176.9140625 102.82796875 -176.9140625 103.48796875 -176.9140625 104.16796875 C-177.7184375 104.37421875 -178.5228125 104.58046875 -179.3515625 104.79296875 C-184.05043194 106.60656748 -187.81012414 109.28269587 -191.9140625 112.16796875 C-192.76871094 112.75320313 -193.62335938 113.3384375 -194.50390625 113.94140625 C-198.21492263 116.49726415 -201.86467217 119.04774152 -205.2890625 121.98046875 C-207.51120721 123.83225601 -209.35140723 124.93082483 -211.9140625 126.16796875 C-212.9334744 127.1481725 -213.93652606 128.14599883 -214.9140625 129.16796875 C-215.5740625 129.49796875 -216.2340625 129.82796875 -216.9140625 130.16796875 C-216.9140625 130.82796875 -216.9140625 131.48796875 -216.9140625 132.16796875 C-217.45546875 132.40515625 -217.996875 132.64234375 -218.5546875 132.88671875 C-221.54656387 134.51144632 -224.02565649 136.51815645 -226.6640625 138.66796875 C-227.64890625 139.46203125 -228.63375 140.25609375 -229.6484375 141.07421875 C-230.39609375 141.76515625 -231.14375 142.45609375 -231.9140625 143.16796875 C-231.9140625 143.82796875 -231.9140625 144.48796875 -231.9140625 145.16796875 C-232.80158203 145.56242187 -232.80158203 145.56242187 -233.70703125 145.96484375 C-236.01270628 147.22174271 -237.431361 148.51565499 -239.2265625 150.41796875 C-241.52889815 152.7988489 -243.85366315 155.00536591 -246.4140625 157.10546875 C-250.318881 160.39047479 -253.87269576 164.06351029 -256.9140625 168.16796875 C-256.9140625 168.82796875 -256.9140625 169.48796875 -256.9140625 170.16796875 C-257.46707031 170.37550781 -258.02007813 170.58304688 -258.58984375 170.796875 C-261.76212313 172.66825325 -263.80824952 175.28608097 -266.1015625 178.10546875 C-266.81578369 178.96966431 -266.81578369 178.96966431 -267.54443359 179.85131836 C-268.52471969 181.03891621 -269.50225221 182.22879222 -270.47705078 183.42089844 C-271.83501691 185.07186779 -273.21179639 186.70445764 -274.59765625 188.33203125 C-275.40332031 189.28851562 -276.20898438 190.245 -277.0390625 191.23046875 C-277.76351563 192.08769531 -278.48796875 192.94492188 -279.234375 193.828125 C-280.82537869 196.04443014 -281.50776178 197.50238981 -281.9140625 200.16796875 C-282.5740625 200.16796875 -283.2340625 200.16796875 -283.9140625 200.16796875 C-285.39850478 202.09683672 -286.75942778 204.01811668 -288.1015625 206.04296875 C-288.91368773 207.24504495 -289.7261915 208.44686548 -290.5390625 209.6484375 C-290.94125 210.2470459 -291.3434375 210.8456543 -291.7578125 211.46240234 C-293.33412051 213.78758979 -294.96849853 216.06990823 -296.6015625 218.35546875 C-299.41191805 222.36378692 -301.98026141 226.469788 -304.45703125 230.69140625 C-305.39846173 232.29158567 -306.35828015 233.88115105 -307.33984375 235.45703125 C-313.78558319 245.84665978 -319.08577219 256.94605201 -323.9140625 268.16796875 C-324.38392578 269.19857422 -324.38392578 269.19857422 -324.86328125 270.25 C-327.36501702 275.73799745 -329.54773692 281.32272743 -331.6875 286.9609375 C-332.77143215 289.79504034 -333.89414769 292.60812056 -335.0390625 295.41796875 C-336.27150915 298.47443644 -337.3949883 301.53404166 -338.4140625 304.66796875 C-343.65197554 320.63652527 -343.65197554 320.63652527 -347.9140625 324.16796875 C-352.8002343 323.76362168 -357.33551519 322.58792708 -362.02734375 321.20703125 C-362.68179977 321.01579681 -363.3362558 320.82456238 -364.01054382 320.62753296 C-366.08390103 320.02050624 -368.15522349 319.40684227 -370.2265625 318.79296875 C-371.60338807 318.38888804 -372.98034037 317.98523888 -374.35742188 317.58203125 C-375.70575299 317.18627909 -377.05406056 316.79044667 -378.40234375 316.39453125 C-379.06386948 316.20069855 -379.7253952 316.00686584 -380.40696716 315.80715942 C-383.15578124 314.99807941 -385.89538358 314.17406751 -388.61938477 313.28466797 C-395.70292236 310.98475206 -402.85463347 310.00036213 -410.2265625 309.04296875 C-411.45568359 308.87410156 -412.68480469 308.70523437 -413.95117188 308.53125 C-456.85545215 302.78049159 -501.81496176 306.28662563 -541.9140625 323.16796875 C-543.57991275 323.79514154 -545.24649586 324.42037397 -546.9140625 325.04296875 C-552.64203917 327.32070444 -557.99624016 330.31596778 -563.3984375 333.265625 C-565.53789344 334.42330838 -567.69349833 335.55254527 -569.875 336.62890625 C-573.60547941 338.51812076 -577.19503993 340.59564721 -580.7890625 342.73046875 C-581.47742188 343.12943359 -582.16578125 343.52839844 -582.875 343.93945312 C-584.58992267 344.95853911 -586.25715705 346.05704105 -587.9140625 347.16796875 C-587.9140625 347.82796875 -587.9140625 348.48796875 -587.9140625 349.16796875 C-588.64625 349.42707031 -589.3784375 349.68617188 -590.1328125 349.953125 C-593.00875992 351.20933237 -594.99748443 352.61510222 -597.4140625 354.60546875 C-598.70763672 355.66701172 -598.70763672 355.66701172 -600.02734375 356.75 C-604.34149256 360.36361044 -608.6524985 363.98005305 -612.93359375 367.6328125 C-614.62891056 369.07483165 -616.33046727 370.50977084 -618.05078125 371.921875 C-621.81689066 375.02785737 -625.00317129 378.39863753 -628.140625 382.140625 C-629.44812932 383.63532708 -630.82268617 385.07199567 -632.23046875 386.47265625 C-640.44023931 394.71827734 -647.9124048 403.5897561 -654.15234375 413.4140625 C-655.83296445 416.04119685 -657.62758737 418.53277073 -659.4765625 421.04296875 C-663.29487272 426.4680792 -666.12162247 432.28307956 -668.98291016 438.25439453 C-669.94835098 440.23843365 -670.94735077 442.20219394 -671.95703125 444.1640625 C-678.24965417 456.41765219 -683.20605897 468.88250885 -686.9140625 482.16796875 C-687.14770508 482.99135742 -687.38134766 483.81474609 -687.62207031 484.66308594 C-704.75707152 545.90928465 -697.64165801 614.82738435 -666.46484375 670.515625 C-662.94281652 676.53944488 -659.14770944 682.33861155 -655.26171875 688.1328125 C-653.1936524 691.25589241 -651.3085644 694.46472623 -649.4765625 697.73046875 C-648.02484548 700.18716809 -648.02484548 700.18716809 -646.09765625 701.98046875 C-643.68505838 704.39738253 -641.56323544 706.95212339 -639.4140625 709.60546875 C-638.66125 710.53230469 -637.9084375 711.45914063 -637.1328125 712.4140625 C-635.68705885 714.20852785 -634.25649063 716.01536797 -632.84375 717.8359375 C-631.16776849 719.86136455 -629.5865465 721.41843919 -627.5390625 723.04296875 C-625.12964674 725.0406489 -623.11649242 727.03710992 -621.1640625 729.48046875 C-617.04981569 734.43280288 -611.97481492 738.23037687 -606.9140625 742.16796875 C-606.10219482 742.800979 -606.10219482 742.800979 -605.27392578 743.44677734 C-599.58084362 748.67069484 -599.58084362 748.67069484 -592.9140625 751.16796875 C-592.9140625 751.82796875 -592.9140625 752.48796875 -592.9140625 753.16796875 C-591.19604968 754.53434528 -591.19604968 754.53434528 -589.0390625 755.79296875 C-588.31976562 756.23898437 -587.60046875 756.685 -586.859375 757.14453125 C-584.98541488 758.32316873 -584.98541488 758.32316873 -582.9140625 758.16796875 C-582.9140625 758.82796875 -582.9140625 759.48796875 -582.9140625 760.16796875 C-581.2434375 760.97234375 -581.2434375 760.97234375 -579.5390625 761.79296875 C-576.36928613 763.37008025 -573.36618752 765.09504487 -570.36328125 766.96875 C-564.79573581 770.32939598 -559.0267978 773.06399469 -553.1015625 775.73046875 C-552.04203369 776.21008057 -550.98250488 776.68969238 -549.89086914 777.18383789 C-531.08518975 785.63736978 -513.52987998 790.52061446 -493.0390625 792.35546875 C-491.32411401 792.52039889 -489.60926922 792.686411 -487.89453125 792.85351562 C-486.19540538 793.01530136 -484.49618894 793.1761393 -482.796875 793.3359375 C-481.68664474 793.44061592 -481.68664474 793.44061592 -480.5539856 793.54740906 C-478.00862992 793.7747796 -475.46212906 793.97309017 -472.9140625 794.16796875 C-471.89615694 794.24717277 -470.87825138 794.32637678 -469.8295002 794.40798092 C-455.04267459 795.41496851 -440.22714447 795.51211494 -425.41225892 795.6924428 C-422.93034855 795.72271982 -420.44845468 795.75416386 -417.96655989 795.78569007 C-373.31438153 796.34437661 -328.66026643 796.31491633 -284.00532734 796.30300298 C-275.23915528 796.30079193 -266.47298593 796.30108763 -257.70681381 796.30285454 C-255.79065665 796.3032406 -255.79065665 796.3032406 -253.83578924 796.30363445 C-251.232046 796.30416832 -248.62830275 796.30470598 -246.02455951 796.30524737 C-211.73772435 796.31193151 -177.45089582 796.30421741 -143.1640625 796.29296875 C-142.11712784 796.29262754 -142.11712784 796.29262754 -141.04904298 796.29227944 C-87.1424743 796.27469362 -33.23590575 796.25214195 20.67065434 796.21672139 C33.93115211 796.20801646 47.19165017 796.19979402 60.45214844 796.19189453 C61.13397262 796.19148594 61.81579681 796.19107736 62.51828234 796.19065639 C104.80020337 796.16538131 147.08199258 796.17570907 189.36389968 796.22083966 C221.03335199 796.25454567 252.70271197 796.26460981 284.37217709 796.24186246 C288.86925233 796.23864868 293.36632773 796.23576766 297.86340332 796.23309326 C298.74219723 796.23256015 299.62099114 796.23202704 300.52641517 796.23147777 C314.51171635 796.22383752 328.49680692 796.24644675 342.48206051 796.28110244 C356.25819156 796.31462961 370.03401911 796.31646663 383.81015623 796.28399879 C391.78950351 796.26614923 399.76790434 796.27237995 407.7471576 796.31608577 C413.61294735 796.34550483 419.47798822 796.32807865 425.34376383 796.29233146 C427.68800825 796.28526116 430.0323599 796.29318224 432.37648153 796.31819558 C447.40853972 796.46829439 457.44901814 794.40104616 470.0859375 786.16796875 C471.70055831 785.29434107 473.3224522 784.43347335 474.9609375 783.60546875 C480.28566965 780.61357603 485.42512387 777.11441468 490.0859375 773.16796875 C490.0859375 772.50796875 490.0859375 771.84796875 490.0859375 771.16796875 C490.92125 771.07515625 490.92125 771.07515625 491.7734375 770.98046875 C497.33875377 769.02508736 501.43459594 762.56813636 505.21875 758.25390625 C506.31041271 757.03435 507.42492666 755.83338204 508.58984375 754.68359375 C517.87744547 745.27474397 524.44897746 734.00397885 530.0859375 722.16796875 C530.44558594 721.47574219 530.80523438 720.78351562 531.17578125 720.0703125 C538.60343432 705.0658567 540.10792807 688.64832791 540.0859375 672.16796875 C540.09383301 671.41805664 540.10172852 670.66814453 540.10986328 669.89550781 C540.24509956 644.29469167 529.36729661 620.81319709 515.0859375 600.16796875 C514.55226563 599.39066406 514.01859375 598.61335938 513.46875 597.8125 C513.01242187 597.26980469 512.55609375 596.72710938 512.0859375 596.16796875 C511.4259375 596.16796875 510.7659375 596.16796875 510.0859375 596.16796875 C509.8384375 595.14703125 509.8384375 595.14703125 509.5859375 594.10546875 C507.70333249 590.4187006 505.24582239 588.47654687 502.09375 585.85546875 C500.0859375 584.16796875 500.0859375 584.16796875 497.6484375 581.66796875 C489.39511929 573.27578064 489.39511929 573.27578064 479.0859375 569.16796875 C479.0859375 568.50796875 479.0859375 567.84796875 479.0859375 567.16796875 C476.42113478 565.8931029 473.75422034 564.62301409 471.0859375 563.35546875 C470.34214844 562.99904297 469.59835937 562.64261719 468.83203125 562.27539062 C467.72021484 561.74848633 467.72021484 561.74848633 466.5859375 561.2109375 C465.915625 560.8914917 465.2453125 560.5720459 464.5546875 560.24291992 C458.42804734 557.57523829 452.5112572 555.59057444 445.90625 554.515625 C445.13548126 554.38938248 444.36471252 554.26313995 443.57058716 554.1330719 C434.97530846 552.84077626 426.39314208 552.6980271 417.71572876 552.62838745 C413.01699664 552.58929598 408.31914852 552.50505141 403.62109375 552.41796875 C402.70674057 552.4014476 401.79238739 552.38492645 400.85032654 552.36790466 C390.21595412 552.14948204 379.66045813 551.3060833 369.0859375 550.16796875 C369.5028201 543.66699763 369.9544547 537.53017496 371.9609375 531.29296875 C373.767787 525.38142852 375.15891415 519.4808439 376.375 513.421875 C377.0859375 510.16796875 377.0859375 510.16796875 378.015625 507.12890625 C391.87627275 459.57209455 389.46732931 400.61999611 381.1484375 352.16796875 C380.9577066 351.05275345 380.9577066 351.05275345 380.76312256 349.91500854 C379.40674249 342.11207293 377.79147685 334.62564455 375.0859375 327.16796875 C374.77257211 325.79775104 374.47855819 324.42285049 374.2109375 323.04296875 C372.91972807 316.87744371 370.75933358 310.9752243 368.71630859 305.02832031 C367.78298151 302.27388484 366.91042636 299.50011776 366.0234375 296.73046875 C364.66827953 292.65411005 363.07868041 288.921131 361.07421875 285.12890625 C360.00791389 283.0131551 359.13495969 280.87493197 358.2734375 278.66796875 C348.94260117 255.10850078 336.4280905 233.2984428 321.76953125 212.6328125 C320.70259086 211.07077216 319.67905236 209.47742654 318.71875 207.84765625 C316.50362879 204.21231379 314.02836125 200.79521292 311.5234375 197.35546875 C310.7819043 196.31616211 310.7819043 196.31616211 310.02539062 195.25585938 C308.76289861 193.52185479 307.42969819 191.83978369 306.0859375 190.16796875 C305.4259375 190.16796875 304.7659375 190.16796875 304.0859375 190.16796875 C303.7971875 189.36359375 303.5084375 188.55921875 303.2109375 187.73046875 C302.35331182 185.03532195 302.35331182 185.03532195 300.0859375 184.16796875 C299.7765625 183.52859375 299.4671875 182.88921875 299.1484375 182.23046875 C298.13247828 179.84825382 298.13247828 179.84825382 295.0859375 178.16796875 C294.7559375 177.17796875 294.4259375 176.18796875 294.0859375 175.16796875 C292.45904616 173.55725914 292.45904616 173.55725914 290.4609375 171.98046875 C287.63626436 169.58650818 285.10910035 167.17616506 282.7109375 164.35546875 C275.20352156 155.53126231 266.68024157 147.79289005 257.7734375 140.41796875 C255.0859375 138.16796875 255.0859375 138.16796875 253.75 136.8046875 C248.83661992 131.97204372 243.26153135 127.45639765 237.4609375 123.73046875 C235.0859375 122.16796875 235.0859375 122.16796875 234.0859375 120.16796875 C231.55860515 119.51241756 231.55860515 119.51241756 229.0859375 119.16796875 C228.7559375 118.17796875 228.4259375 117.18796875 228.0859375 116.16796875 C226.16971602 114.59415591 226.16971602 114.59415591 223.8359375 113.16796875 C223.01738281 112.64332031 222.19882813 112.11867188 221.35546875 111.578125 C218.94692387 110.08159367 216.52846902 108.60843606 214.0859375 107.16796875 C213.09207031 106.52988281 213.09207031 106.52988281 212.078125 105.87890625 C211.35882812 105.41742187 210.63953125 104.9559375 209.8984375 104.48046875 C209.22425781 104.04347656 208.55007813 103.60648438 207.85546875 103.15625 C206.13271704 102.00543363 206.13271704 102.00543363 204.0859375 102.16796875 C204.0859375 101.50796875 204.0859375 100.84796875 204.0859375 100.16796875 C203.10560547 99.81605469 203.10560547 99.81605469 202.10546875 99.45703125 C198.15450607 97.77033308 194.50447983 95.66462782 190.7734375 93.54296875 C179.50290873 87.20898457 168.03451309 81.13513438 156.0859375 76.16796875 C154.95800781 75.69617187 153.83007812 75.224375 152.66796875 74.73828125 C136.62625007 68.12125414 119.92780105 63.405983 102.92578125 59.94921875 C100.21811873 59.39832098 97.53205412 58.81554413 94.83984375 58.19921875 C45.46432354 47.32811449 -14.98399477 46.38867186 -64.18359375 58.26953125 Z " fill="#00BCF2" transform="translate(1364.9140625,1201.83203125)"/>
<path d="M0 0 C1.83763916 0.02320313 1.83763916 0.02320313 3.71240234 0.046875 C17.01021269 0.41405203 27.12733655 3.06438539 37.46484375 11.85546875 C39.125 13.625 39.125 13.625 39.125 15.625 C40.02412109 16.00785156 40.02412109 16.00785156 40.94140625 16.3984375 C52.24824165 22.74968315 60.37250702 43.9999302 63.74609375 55.796875 C64.27974921 58.06387647 64.70394621 60.33431887 65.125 62.625 C65.29394775 63.49552002 65.46289551 64.36604004 65.63696289 65.26293945 C67.35399188 75.02749021 67.48190455 84.61963199 67.4375 94.5 C67.43426727 95.78925385 67.43426727 95.78925385 67.43096924 97.10455322 C67.3484575 117.62803613 66.48418581 137.90662838 57.125 156.625 C56.465 156.625 55.805 156.625 55.125 156.625 C54.8465625 157.8315625 54.8465625 157.8315625 54.5625 159.0625 C52.61556008 163.88752502 49.69151891 167.83977946 46.125 171.625 C45.465 171.625 44.805 171.625 44.125 171.625 C43.856875 172.264375 43.58875 172.90375 43.3125 173.5625 C42.125 175.625 42.125 175.625 39.125 176.625 C39.125 177.285 39.125 177.945 39.125 178.625 C25.09623626 190.91712761 11.07143574 193.39540531 -6.875 192.625 C-20.078027 191.51565476 -31.74063745 184.75239387 -41.875 176.625 C-42.50792969 176.17898438 -43.14085937 175.73296875 -43.79296875 175.2734375 C-47.96950913 172.15775749 -50.73084484 168.20052958 -53.5625 163.875 C-53.93133301 163.31474121 -54.30016602 162.75448242 -54.68017578 162.17724609 C-66.71269527 142.99583467 -67.68880239 118.97329601 -67.41699219 97.00952148 C-67.37457073 93.40098484 -67.37599941 89.79429521 -67.3828125 86.18554688 C-67.32591697 65.54609519 -64.35066888 48.67806938 -53.875 30.625 C-53.215 30.625 -52.555 30.625 -51.875 30.625 C-51.78992188 29.820625 -51.78992188 29.820625 -51.703125 29 C-50.49476806 25.5345235 -48.10442632 23.24037398 -45.625 20.625 C-45.14675781 20.10421875 -44.66851563 19.5834375 -44.17578125 19.046875 C-32.2510886 6.24964387 -17.53841556 -0.34868588 0 0 Z " fill="#00BBF2" transform="translate(687.875,870.375)"/>
</svg>
